<svg width="140" height="110" viewBox="0 0 140 110" fill="none" xmlns="http://www.w3.org/2000/svg">
<path d="M42.3045 98.671C41.799 98.8064 41.2331 98.905 41.0489 98.8883C40.8648 98.8716 40.0344 98.8164 39.2024 98.7646C37.8915 98.6827 37.6136 98.6108 37.1147 98.2197C36.6292 97.8403 36.584 97.7517 36.8267 97.6598C37.3574 97.4559 37.1214 97.2988 36.1269 97.1951C34.8127 97.0581 34.3105 96.8157 34.3105 96.3193C34.3105 95.7894 34.4963 95.7393 39.877 94.815C42.3631 94.3888 44.4324 94.006 44.4759 93.9642C44.5194 93.9224 44.4592 93.8305 44.342 93.7586C44.0105 93.553 44.4341 93.2906 45.5725 92.9948C46.7343 92.6922 47.5513 92.6672 48.0234 92.9196C48.4051 93.1218 49.2355 92.9797 49.0848 92.7374C48.971 92.5535 49.1267 92.5184 51.6798 92.1524C52.7395 92.0019 54.5091 91.7328 55.614 91.5557C56.7189 91.3802 58.7145 91.1244 60.0505 90.9874C61.3865 90.852 63.8341 90.5879 65.4915 90.404C67.1489 90.2185 69.7455 89.9544 71.2623 89.8157C72.779 89.6786 75.605 89.3794 77.5403 89.1505C79.4773 88.9231 82.1911 88.6557 83.5722 88.5571C86.1655 88.3732 88.7839 88.1158 89.5155 87.9738C89.7465 87.9286 91.1695 87.7765 92.6779 87.6361C94.188 87.4941 95.5005 87.3319 95.596 87.2718C95.6914 87.2133 96.716 87.1497 97.8728 87.1297C101.342 87.0712 107.126 86.6667 109.773 86.299L110.359 86.2171L109.773 86.533C109.451 86.7085 108.867 86.9458 108.475 87.0628C108.083 87.1798 107.764 87.3436 107.764 87.4272C107.764 87.5108 107.896 87.5375 108.057 87.4857C108.718 87.2784 110.201 87.0545 110.926 87.0528C111.35 87.0511 112.602 86.8656 113.707 86.6383C115.739 86.2204 117.139 86.1051 117.139 86.3558C117.139 86.4293 116.821 86.67 116.431 86.889C115.893 87.1899 115.393 87.3035 114.338 87.3587C112.741 87.4422 112.456 87.723 113.97 87.723C114.527 87.723 115.13 87.7999 115.307 87.8952C115.533 88.0156 117.033 87.9871 120.278 87.8016C122.833 87.6545 125.337 87.5576 125.844 87.586L126.765 87.6395L125.258 88.0089C124.43 88.2111 123.263 88.4284 122.664 88.4902C121.463 88.6123 120.586 88.863 121.289 88.883C121.925 88.8997 124.788 88.5705 127.145 88.2078C128.366 88.0206 129.496 87.8986 129.656 87.937C130.314 88.0958 128.054 88.7744 124.254 89.56C123.702 89.6736 122.888 89.8792 122.446 90.0146C121.877 90.1901 120.752 90.2703 118.595 90.2887C116.082 90.3088 115.46 90.3639 115.046 90.5946C114.435 90.9372 112.25 91.4086 108.684 91.9652C105.438 92.4716 99.0916 92.8694 98.6195 92.5953C98.3466 92.4382 98.3834 92.4115 98.8907 92.3964C99.2121 92.3864 99.6273 92.3145 99.8115 92.2359C100.099 92.1123 100.076 92.0905 99.6441 92.0822C98.735 92.0621 96.9755 92.4181 96.6858 92.6789C96.5017 92.846 96.2723 92.8928 96.0245 92.8143C95.6579 92.6989 95.6562 92.6889 95.9676 92.4616C96.1434 92.3329 96.8164 92.0688 97.4626 91.8732C98.7986 91.4721 98.6647 91.2699 97.2417 91.544C96.1032 91.7613 94.0457 92.0187 91.7756 92.2259C90.8548 92.3095 89.7716 92.4967 89.3681 92.6421C88.9161 92.8042 88.0841 92.9045 87.1917 92.9045C85.1577 92.9045 81.6168 93.3458 80.897 93.6884C80.3964 93.9275 80.2323 93.9408 79.9544 93.767C79.6815 93.5982 79.2915 93.6065 77.912 93.8121C73.2612 94.5024 72.2349 94.6378 70.765 94.7498C69.8895 94.8167 68.0445 94.9571 66.6634 95.0624C65.2822 95.166 63.3603 95.3666 62.3943 95.5036C61.4283 95.6424 59.5181 95.8663 58.152 96.0034C56.7859 96.1404 54.9226 96.3628 54.0102 96.4998C53.0978 96.6369 51.9928 96.7555 51.5559 96.7656C51.1173 96.7739 50.5715 96.8374 50.3404 96.9026L49.9219 97.0246L50.2986 97.1483C50.7389 97.2937 50.7858 97.506 50.4108 97.6498C49.952 97.8253 49.49 97.7618 49.2104 97.4843C49.0028 97.2754 48.6881 97.2302 47.8091 97.2804C46.731 97.3405 46.1618 97.5428 46.6171 97.7049C47.0441 97.857 46.6155 98.086 45.904 98.086C45.5005 98.086 45.1238 98.1612 45.0669 98.2532C45.01 98.3451 44.573 98.422 44.0942 98.422C43.6171 98.4236 42.8101 98.5356 42.3045 98.671ZM85.5678 85.4482C85.1878 85.5936 85.1543 85.5869 84.3423 85.1858C83.9372 84.9852 83.4852 84.6108 83.3379 84.3534C83.0315 83.8169 82.921 83.8286 81.4461 84.5674L80.4918 85.0454L80.2407 84.6877C79.8439 84.1228 80.2742 83.506 81.57 82.7822L82.6665 82.1705L82.6347 80.8935C82.618 80.1915 82.6598 79.1084 82.7301 78.4883C82.8808 77.1578 82.7887 77.106 81.4478 77.7779C80.393 78.3078 80.1721 78.3028 79.9611 77.7445C79.705 77.0759 80.1704 76.5611 81.7391 75.7722C82.4707 75.4045 83.1186 75.0368 83.1771 74.9549C83.3061 74.7794 83.5254 73.4974 83.4417 73.4138C83.4098 73.382 82.9746 73.3269 82.474 73.2901C81.3423 73.2099 81.0342 73.0829 80.9204 72.6499C80.7279 71.9112 81.0677 71.5635 82.5159 71.022C84.3172 70.3467 84.3691 70.3133 84.5148 69.7701C84.6203 69.3789 84.5968 69.3271 84.3574 69.4291C84.2017 69.4943 83.5622 69.6898 82.9378 69.8636C82.3133 70.0358 81.6721 70.2464 81.5147 70.3283C81.3574 70.4102 80.4751 70.7211 79.5543 71.0169C77.4399 71.6989 77.0129 71.9162 76.8623 72.3859C76.7451 72.7519 76.7384 72.7536 76.5978 72.4293C76.4772 72.1519 76.4622 72.1719 76.5141 72.5497C76.5475 72.8004 76.5191 72.9692 76.4504 72.9274C76.2813 72.8221 76.0989 73.5943 76.2194 73.9085C76.273 74.0473 76.1625 74.5069 75.975 74.9298C75.7875 75.3527 75.6753 75.8056 75.7255 75.9377C75.7757 76.068 75.6971 76.7015 75.5514 77.3434C75.2718 78.5719 75.1915 80.0795 75.4409 79.4494C75.5447 79.1836 75.6117 79.3006 75.764 80.006C75.8712 80.4974 75.918 80.9604 75.8712 81.0356C75.7439 81.2429 76.4303 82.7455 76.6045 82.6385C76.6865 82.5867 77.0682 82.8876 77.4549 83.3054C78.0375 83.9372 78.1212 84.1077 77.9471 84.3166C77.7931 84.5022 77.5637 84.5389 77.0565 84.4537C75.9917 84.2782 75.8092 84.1127 75.1731 82.7405C73.9174 80.031 73.7869 79.1051 74.11 75.1956C74.197 74.1425 74.2422 73.2533 74.2087 73.2216C74.1753 73.1882 73.3884 73.5408 72.4593 74.0072C71.5318 74.4718 70.6311 74.8529 70.4587 74.8529C70.0753 74.8529 69.6718 74.41 69.5362 73.84C69.4391 73.4288 69.5479 73.3586 72.3689 72.0148C74.5386 70.9802 75.3974 70.4854 75.6619 70.1127C75.9047 69.7734 75.9432 69.6397 75.7791 69.6998C75.6452 69.7483 74.8583 69.9923 74.0296 70.2397C73.2009 70.4888 72.3504 70.7612 72.1412 70.8481C71.9319 70.935 70.9626 71.2727 69.9882 71.5969C67.6545 72.3775 67.2694 72.5931 66.9831 73.2767C66.8509 73.591 66.6784 73.85 66.5998 73.85C66.5227 73.85 66.4575 74.1492 66.4575 74.5136C66.4575 74.878 66.3336 75.3661 66.1812 75.5984C66.0289 75.8307 65.9134 76.2268 65.9251 76.4809C65.9368 76.735 65.8933 77.5824 65.828 78.3629C65.7526 79.2739 65.7794 80.0528 65.9033 80.5358C66.0088 80.9487 66.1193 81.5537 66.1461 81.8797C66.1745 82.2039 66.3252 82.692 66.4826 82.9661C66.6399 83.2386 66.7253 83.3104 66.6734 83.1266C66.5931 82.8441 66.6332 82.8575 66.9262 83.2101C67.1187 83.4408 67.4988 83.8837 67.7733 84.198C68.1986 84.6827 68.2387 84.8014 68.0412 84.9986C67.7432 85.2961 66.4993 85.0454 66.064 84.6008C65.6639 84.1946 64.636 81.8212 64.3129 80.5609C64.0919 79.6984 64.0802 79.187 64.2375 77.0759C64.338 75.7154 64.4619 74.4334 64.5138 74.2261C64.5657 74.0189 64.5673 73.85 64.5188 73.85C64.4702 73.85 63.6382 74.2345 62.6672 74.7058C60.7419 75.6418 60.2531 75.6819 59.9115 74.9331C59.8044 74.6958 59.7157 74.405 59.7157 74.2863C59.7157 74.1659 61.0533 73.4238 62.6873 72.6366C65.4998 71.2794 65.684 71.1607 66.1159 70.437C66.4876 69.8118 66.6583 69.6714 67.0518 69.6714C67.3163 69.6714 67.708 69.8235 67.9223 70.0074C68.1349 70.1929 68.4296 70.3116 68.5752 70.2698C71.0814 69.5661 76.5241 68.3343 77.1268 68.3343C77.2473 68.3343 77.2992 68.4663 77.2507 68.6519C77.1938 68.8675 77.3227 69.0848 77.6525 69.3271L78.138 69.6865L79.9343 69.1917C81.8395 68.6669 86.3982 67.6657 86.8837 67.6657C87.2838 67.6657 87.2437 67.9432 86.7766 68.4095C86.4451 68.7404 86.0332 69.8386 86.2408 69.8386C86.2777 69.8386 87.6672 69.5377 89.328 69.17C90.9887 68.8023 92.4636 68.5014 92.6059 68.5014C92.9508 68.5014 92.9609 69.7182 92.616 70.0024C92.4804 70.1144 90.9167 70.579 89.1421 71.032C85.9445 71.8493 85.4975 72.0532 85.4975 72.6934C85.4975 73.0377 86.0282 73.123 89.1522 73.2801C91.5629 73.4021 91.7454 73.484 91.3771 74.2896C91.2415 74.5855 91.0975 74.6791 90.8816 74.6105C90.6924 74.5504 90.458 74.6457 90.2621 74.8596C90.0545 75.0886 89.8252 75.1755 89.5858 75.1153C89.3849 75.0652 88.6282 75.2373 87.9033 75.4981C87.1784 75.7588 86.194 76.0647 85.7151 76.18C84.8613 76.3823 84.8413 76.4007 84.7358 77.1027C84.6772 77.4955 84.6169 78.6354 84.6035 79.6366C84.5801 81.166 84.6169 81.4501 84.8279 81.425C84.9668 81.4067 85.8323 81.171 86.7531 80.8969C89.0032 80.23 92.4251 79.4995 92.991 79.563C93.3543 79.6048 93.4614 79.7152 93.5033 80.0862C93.5669 80.6344 93.3375 80.9671 92.8169 81.0841C91.3336 81.42 87.9836 82.3126 86.6276 82.7321L84.9953 83.2369V83.8035C84.9953 84.2264 85.1024 84.4437 85.4138 84.6459C85.8909 84.9585 85.9562 85.2995 85.5678 85.4482ZM72.317 29.5734C71.4665 29.9378 71.438 29.9412 71.1015 29.7289C70.9643 29.642 70.6746 29.6152 70.4587 29.6687C70.2427 29.7239 69.7806 29.6737 69.4324 29.5584C68.9385 29.3963 68.6656 29.3929 68.1986 29.5467C67.4837 29.7824 66.9145 29.5601 66.9145 29.0419C66.9145 28.7511 66.8174 28.711 66.1929 28.7427C65.2303 28.7929 64.9591 28.6224 65.3391 28.2029C65.617 27.897 65.607 27.8853 65.093 27.8853C64.3681 27.8853 63.2464 27.4139 63.5411 27.2317C63.7152 27.1248 63.7018 27.073 63.4825 26.9894C63.3301 26.9309 63.0405 26.8807 62.8413 26.8791C62.6421 26.8791 62.3692 26.8089 62.2353 26.7236C62.036 26.5983 62.0645 26.5114 62.4027 26.2306L62.8128 25.8913L61.9473 25.8846C60.6046 25.8762 60.4188 25.7391 61.1504 25.2979L61.7682 24.9252L60.0723 25.0071C59.1398 25.0522 58.3763 25.0221 58.378 24.9402C58.378 24.86 58.6861 24.6176 59.0611 24.4037C59.4378 24.1897 59.714 23.9825 59.6755 23.944C59.637 23.9056 59.1632 23.9557 58.6241 24.056C57.5577 24.2532 56.5231 24.1546 55.8651 23.7953L55.4466 23.5663L55.9488 23.4543C56.7139 23.2838 57.9293 22.8843 58.1972 22.7155C58.3429 22.6219 57.926 22.5985 57.109 22.6553C55.9689 22.7322 55.6692 22.6938 54.9946 22.3762C53.6971 21.7661 53.6686 21.5572 54.8975 21.6541C55.5219 21.7043 56.2552 21.6491 56.7022 21.5204L57.4556 21.3015L56.4243 21.1945C55.1536 21.0608 53.7222 20.3855 53.0208 19.5866C52.4114 18.8946 52.4566 18.7475 53.2032 19.0066C54.052 19.3024 54.3333 19.2105 53.6619 18.8561C52.9722 18.4918 52.3913 17.8299 52.2423 17.2365C52.1 16.6699 52.2523 16.6064 52.7964 17.0025C54.1073 17.9569 56.7524 18.0639 60.8876 17.3284C62.4295 17.0526 63.6633 16.9524 65.5752 16.9457C68.7393 16.9356 68.7761 16.9507 71.7695 19.376C72.9213 20.3086 74.1903 21.2964 74.5921 21.5739C75.2953 22.0586 75.317 22.1004 75.2149 22.7473C75.1262 23.2922 73.668 27.7482 73.1858 28.9467C73.1172 29.1155 72.7255 29.3979 72.317 29.5734ZM113.791 84.3751C112.704 84.691 111.402 84.8482 110.61 84.7612C108.015 84.4721 105.529 83.2302 103.865 81.3899C102.565 79.9525 100.285 76.6113 99.7713 75.3895C99.6089 75.005 99.4348 74.6891 99.3829 74.6874C99.3327 74.6858 99.0866 75.8324 98.8354 77.2347C98.3081 80.2049 98.2344 82.5817 98.6546 83.1801C98.8639 83.4809 98.8773 83.6096 98.7166 83.8018C98.4269 84.1512 98.1959 84.1077 97.5849 83.5862C96.2087 82.4129 96.4967 78.1824 98.3148 72.8305C99.3293 69.8436 99.5788 69.3371 100.041 69.3371C100.362 69.3371 100.9 69.8285 100.9 70.121C100.9 70.2163 100.598 71.0955 100.23 72.075C99.8617 73.0528 99.5603 73.9286 99.5603 74.0189C99.5603 74.1108 99.701 74.1843 99.8751 74.1843C100.048 74.1843 100.292 74.3097 100.419 74.4635C100.87 75.01 101.961 75.6886 102.39 75.687C104.342 75.6836 105.994 73.7314 105.997 71.4264C105.999 70.1979 105.632 69.511 104.615 68.8374C103.498 68.0969 102.12 68.0083 100.347 68.5599C98.8053 69.0396 97.1596 70.0224 96.5988 70.7963C96.192 71.3596 96.2372 71.8694 96.7411 72.3725C97.3488 72.9792 96.9905 73.4957 96.1133 73.2767C95.3917 73.0946 94.8727 72.446 94.8761 71.7273C94.8861 70.086 96.3393 68.4262 98.6647 67.4016C100.066 66.7832 100.238 66.7481 101.82 66.7481C103.86 66.7497 104.857 67.1258 105.972 68.3159C107.017 69.4307 107.322 70.3367 107.228 72.0499C107.139 73.6378 106.64 74.8312 105.612 75.9109C104.692 76.8787 103.863 77.2481 102.934 77.1094L102.169 76.994L102.932 77.8883C104.471 79.6901 107.457 81.8362 109.056 82.2892C109.423 82.3928 109.424 82.3828 109.182 81.8045C109.046 81.4802 108.936 80.9771 108.936 80.6879C108.936 79.9859 109.729 78.2459 110.092 78.1507C110.251 78.1106 110.662 77.7345 111.003 77.3183L111.624 76.5611L111.03 75.4145C110.4 74.201 109.948 72.4327 109.943 71.164C109.933 68.5549 111.825 66.504 114.495 66.2316C115.656 66.1129 116.258 66.3018 116.871 66.9787C117.139 67.2729 117.171 67.4852 117.079 68.3577C116.958 69.5093 116.384 71.2342 116.021 71.5351C115.836 71.6872 115.654 71.6705 115.2 71.4532C114.88 71.3011 114.579 71.0754 114.532 70.9534C114.484 70.8297 114.75 70.101 115.123 69.3321C115.495 68.5633 115.8 67.7977 115.8 67.6323C115.8 66.8651 113.961 67.6339 112.969 68.8173C112.028 69.9389 111.731 70.9133 111.87 72.4293C111.976 73.5692 112.614 75.3543 112.917 75.3543C112.999 75.3543 113.688 74.8663 114.447 74.2679C115.915 73.1129 115.977 73.0862 116.481 73.3553C117.157 73.7163 116.858 74.2161 115.199 75.4948C114.323 76.17 113.633 76.7717 113.665 76.8319C114.14 77.7128 114.792 79.2572 114.877 79.7118C114.946 80.0779 114.889 80.5743 114.725 81.0423C114.582 81.4535 114.464 81.8479 114.462 81.9181C114.459 82.1722 116.064 81.2195 116.628 80.6344C117.308 79.9274 117.698 79.8789 118.076 80.4539C118.302 80.7999 118.316 80.9554 118.152 81.3498C117.713 82.4078 115.659 83.8336 113.791 84.3751ZM40.7141 89.4229C39.2375 89.8959 39.2291 89.8976 38.9563 89.7338C38.8173 89.6502 38.4975 89.5382 38.2447 89.4847C37.8296 89.3978 37.7844 89.3176 37.7844 88.6758C37.7844 87.5927 38.0807 85.3613 38.531 83.043C38.7554 81.893 39.1789 79.4494 39.4736 77.6108C39.7682 75.7722 40.1014 74.1676 40.2152 74.0439C40.3876 73.8567 40.5048 73.8634 40.9234 74.079C41.2013 74.2228 41.4742 74.4601 41.5311 74.6089C41.7002 75.0501 41.65 76.1901 41.4591 76.1901C41.3503 76.1901 41.3268 76.4124 41.3988 76.7935C41.4691 77.1679 41.4424 77.4386 41.3302 77.5088C41.2297 77.5707 41.0288 78.4081 40.8832 79.3708C40.7375 80.3336 40.5065 81.8396 40.3676 82.7187C40.2269 83.5962 40.1616 84.4621 40.2202 84.6409C40.3073 84.905 40.2939 84.9184 40.1466 84.7144C39.9976 84.5072 39.9607 84.5373 39.9373 84.8816C39.9206 85.1122 39.9189 85.4315 39.9323 85.5919C39.9457 85.7524 39.877 85.8845 39.7799 85.8845C39.6795 85.8845 39.6493 86.0282 39.7096 86.2187C39.7699 86.411 39.7398 86.553 39.6376 86.553C39.5389 86.553 39.4585 86.8271 39.4585 87.1614V87.7699L40.3173 87.6679C40.7911 87.6127 41.9881 87.367 42.9792 87.1213C44.4458 86.7603 44.8141 86.6082 44.953 86.3023C45.0468 86.0967 45.6076 85.6588 46.1986 85.3279L47.2751 84.7278L47.3806 82.2658C47.4391 80.9119 47.4676 79.7837 47.4425 79.7586C47.4174 79.7335 46.8934 79.9475 46.2773 80.2316C45.3532 80.6612 45.1154 80.7147 44.9045 80.5392C44.5713 80.2634 44.578 79.7068 44.9212 79.2171C45.0719 79.0031 45.8169 78.5334 46.577 78.1758L47.9598 77.5222L48.0737 76.7567C48.1373 76.3372 48.1607 75.9628 48.1239 75.9277C48.0887 75.8926 47.6367 75.8374 47.1194 75.8056C46.0379 75.7421 45.6512 75.4947 45.6562 74.8746C45.6595 74.196 45.8102 74.074 47.332 73.5024C48.1122 73.2099 48.8387 72.8873 48.9459 72.7837C49.053 72.68 49.2489 72.2237 49.3795 71.7691C49.6792 70.7294 49.9638 70.5289 50.5782 70.9317C50.9632 71.1824 51.0285 71.3278 50.9733 71.7992C50.9147 72.3006 50.9482 72.3558 51.2512 72.2856C51.4404 72.2404 52.9002 71.9195 54.494 71.5702C57.5912 70.8949 57.6983 70.9016 57.7033 71.7708C57.71 72.5012 57.3484 72.67 53.9399 73.5275C52.0983 73.9921 50.5397 74.4233 50.4777 74.4869C50.4158 74.5504 50.3153 74.7994 50.2567 75.0384C50.1529 75.4546 50.1847 75.4797 50.9565 75.575C51.4002 75.6285 52.7261 75.7254 53.903 75.7873C55.0783 75.8508 56.0828 75.9678 56.133 76.0497C56.1832 76.1316 56.1799 76.404 56.1246 76.6564C56.0175 77.1394 55.3863 77.4637 54.191 77.6442C53.8695 77.6944 53.5297 77.7913 53.4376 77.8632C53.3455 77.9334 52.4298 78.1975 51.4019 78.4499L49.5352 78.9078L49.4431 79.5965C49.1886 81.5053 49.1351 83.5545 49.3343 83.7935C49.4481 83.9305 49.6088 84.0007 49.6909 83.9506C50.2735 83.5912 56.7692 82.0401 57.6916 82.0401C58.6091 82.0401 58.4132 83.3104 57.4556 83.5779C57.1793 83.6547 55.9354 83.984 54.6932 84.3083C53.451 84.6325 51.812 85.0872 51.052 85.3178C49.7244 85.7207 49.6708 85.7574 49.6708 86.2371C49.6708 86.5547 49.8231 86.8773 50.0893 87.123C50.5715 87.5693 50.6167 87.8133 50.245 87.9554C49.8851 88.0924 48.375 87.4222 48.0686 86.9893C47.9029 86.7536 47.779 86.6984 47.6986 86.8238C47.5346 87.0795 46.3057 87.723 45.981 87.723C45.837 87.723 45.6478 87.7866 45.5608 87.8651C45.4737 87.9437 44.573 88.2546 43.5602 88.5537C42.5473 88.8546 41.2666 89.2457 40.7141 89.4229ZM74.2288 37.7318C74.0095 37.9507 73.6127 37.9624 73.2913 37.7602C73.1624 37.6783 72.9615 37.6465 72.846 37.69C72.7221 37.7385 72.5497 37.5312 72.4241 37.1819C72.2868 36.8024 72.0859 36.5751 71.8649 36.5434C71.5736 36.5016 71.5268 36.3913 71.5669 35.8664C71.6121 35.3065 71.5753 35.2396 71.2237 35.2396C70.5608 35.2396 70.3766 34.9003 70.7952 34.4557L71.1585 34.0696H70.8086C70.616 34.0696 70.3398 34.0245 70.1941 33.9693C69.9648 33.8808 69.9765 33.8106 70.2778 33.4261L70.6261 32.9849L70.0937 32.8762C69.1244 32.679 69.2114 32.4784 70.4704 31.997C72.0508 31.3903 72.7589 30.924 73.3181 30.1183C73.9359 29.2291 75.538 24.5658 76.0386 22.2024C76.8238 18.4951 78.3573 16.3523 80.2256 16.3523C80.8317 16.3523 81.0192 16.4409 81.4461 16.9239C81.7223 17.2398 82.2011 17.6276 82.5092 17.7881L83.07 18.0789L82.5661 18.2862C81.3004 18.806 81.0845 19.966 81.7876 22.4531C82.2564 24.1095 82.3016 25.8361 81.9081 27.0195C81.3507 28.6926 79.7669 30.237 78.0208 30.807L77.1787 31.0828L77.2574 31.9118C77.3277 32.6372 77.2657 32.8578 76.7534 33.6969C76.0269 34.8903 75.7875 35.589 75.7875 36.5183C75.7875 37.446 75.3003 38.0226 74.7612 37.7351C74.5084 37.5997 74.3611 37.5997 74.2288 37.7318ZM111.432 9.47431C109.627 10.4354 108.584 10.646 107.178 10.3351C106.809 10.2532 106.237 10.183 105.905 10.178C105.37 10.1696 105.194 10.0393 104.353 9.0414C103.054 7.49699 102.823 6.56432 103.325 4.87449C103.568 4.06217 103.657 3.97692 105.857 2.40911L108.137 0.786133L108.5 1.12711L108.864 1.46641L109.421 1.12878C109.727 0.941578 109.997 0.812876 110.02 0.841291C110.044 0.868034 110.156 1.07028 110.27 1.28924C110.462 1.65696 110.543 1.67701 111.415 1.57506C111.931 1.51488 112.535 1.41961 112.756 1.36445C113.129 1.27085 113.149 1.29927 113.047 1.76727C112.927 2.31216 113.258 2.8136 113.737 2.8136C113.928 2.8136 113.966 2.92224 113.889 3.23146C113.804 3.56909 113.846 3.64932 114.109 3.64932C114.286 3.64932 114.549 3.69445 114.691 3.74794C114.914 3.83318 114.902 3.91174 114.604 4.31455C114.171 4.89956 114.303 5.39765 114.986 5.75033L115.488 6.0094L114.402 6.83008C113.667 7.385 113.285 7.79952 113.215 8.11542C113.131 8.49818 112.82 8.73553 111.432 9.47431ZM108.023 55.053C107.573 55.5026 107.523 55.5143 106.968 55.292C106.525 55.1131 106.516 55.0496 106.833 54.1571C107.114 53.3615 107.325 51.1468 107.683 45.2683C107.983 40.3325 108.427 33.9175 108.515 33.2189C108.577 32.7308 108.643 31.27 108.616 30.9942C108.607 30.9106 108.468 30.9557 108.308 31.0928C108.147 31.2315 107.225 31.7747 106.257 32.3029C104.251 33.3977 102.967 34.1248 102.586 34.3855C100.771 35.6241 98.9376 36.5768 98.37 36.5768C97.6485 36.5768 97.1847 36.0921 97.312 35.467C97.4107 34.9806 97.5832 34.8669 99.7026 33.9008C100.96 33.3292 103.503 32.1475 105.355 31.275L108.721 29.6871L108.835 28.4101C109.17 24.6343 109.299 24.183 110.184 23.71C110.533 23.5245 110.657 23.5312 111.008 23.7618C111.623 24.163 111.623 24.4521 111.027 27.8435C110.874 28.706 111.027 28.7427 112.322 28.1527C112.808 27.9304 113.846 27.4758 114.628 27.1398C116.056 26.5281 116.705 26.2423 118.19 25.572C119.047 25.1859 119.494 25.099 119.22 25.3731C119.129 25.4634 117.551 26.279 115.713 27.1866C113.873 28.0942 112.083 29.0319 111.735 29.2692C111.387 29.5066 111.022 29.7255 110.924 29.759C110.829 29.7907 110.69 30.2654 110.618 30.8153C110.548 31.3636 110.255 33.2055 109.969 34.9054C109.682 36.6052 109.255 39.4634 109.021 41.2569C108.787 43.0503 108.475 45.2683 108.331 46.1876C108.186 47.1069 108.027 49.0759 107.976 50.5635C107.899 52.8316 107.929 53.3765 108.16 53.9548C108.432 54.6318 108.43 54.6468 108.023 55.053ZM97.1479 48.0128C97.0475 48.4641 96.8851 48.8603 96.7896 48.892C96.6942 48.9238 95.9542 48.3538 95.1439 47.6267C94.3337 46.898 93.2187 46.0623 92.6679 45.7681C90.7108 44.7268 90.0177 43.8526 90.0177 42.4235C90.0177 41.4491 90.1784 41.0646 90.91 40.2924C91.8978 39.2511 93.2153 39.2611 94.1897 40.3158C94.414 40.5582 94.64 40.7554 94.6936 40.7554C94.7472 40.7554 94.8945 40.5214 95.0217 40.2373C95.3047 39.5971 96.4782 38.8299 97.4007 38.6828C98.745 38.4689 99.8801 39.4149 100.019 40.8691C100.125 41.9589 99.86 42.838 99.0564 44.0799C98.0787 45.5909 97.3588 47.0735 97.1479 48.0128ZM82.3585 64.281C82.0069 64.5501 81.8998 64.5434 81.6487 64.2409C81.349 63.8799 81.642 62.648 83.5923 56.0608C83.9171 54.9644 84.5851 52.6712 85.0773 50.9629C87.0545 44.1167 89.8855 35.1277 91.1913 31.5625C91.4776 30.7819 91.8275 29.8225 91.9681 29.433C92.2175 28.7411 93.0295 27.8803 93.4212 27.8903C93.6975 27.8987 94.121 28.253 94.2433 28.5773C94.3705 28.9199 94.0105 30.0866 92.6377 33.7771C89.9692 40.9426 84.9551 55.7917 83.9874 59.392C83.2876 61.9961 82.5828 64.1089 82.3585 64.281ZM28.9415 63.589C28.8193 63.7177 28.6268 63.8214 28.5146 63.8214C28.2484 63.8214 27.9069 63.4787 27.9069 63.213C27.9069 62.9907 31.4745 58.4243 34.0929 55.297C34.9768 54.239 36.2994 52.6227 37.031 51.7034C37.7626 50.7841 38.4389 49.9484 38.5327 49.8464C38.8223 49.5339 39.502 48.7416 40.3793 47.6936C40.8397 47.1437 41.8944 45.9102 42.7231 44.9507C43.5518 43.993 44.7069 42.6375 45.2895 41.9405C46.5452 40.4362 50.173 36.4615 51.2277 35.4352C52.1803 34.5076 53.1513 34.3003 53.4996 34.9488C53.8712 35.6408 53.7691 35.7795 49.9554 39.8111C46.7159 43.2325 43.8029 46.3982 41.5512 48.9422C41.1829 49.3567 40.843 49.7361 40.7978 49.7812C40.7526 49.8264 40.1499 50.505 39.4602 51.2855C38.7721 52.0661 38.1627 52.7447 38.1091 52.7898C38.0556 52.835 37.565 53.4049 37.0193 54.0551C36.4735 54.7036 35.0856 56.33 33.9338 57.6654C32.782 59.0026 31.2384 60.8295 30.5018 61.727C29.7652 62.6246 29.0637 63.462 28.9415 63.589ZM134.898 15.6837C134.815 15.6837 134.632 15.7272 134.493 15.7807C134.324 15.8459 134.224 15.7556 134.187 15.5049C134.128 15.1121 133.989 15.0101 133.043 14.6575C132.722 14.5371 132.005 13.9839 131.453 13.4273C130.765 12.7353 130.045 12.2205 129.164 11.7943C128.414 11.4316 127.684 10.9368 127.406 10.6025C127.045 10.1663 126.695 9.96906 125.928 9.77183C124.619 9.43419 124.003 8.79737 124.003 7.7828C124.005 6.3838 124.971 5.48958 126.849 5.14526C128.495 4.84273 129.551 5.11518 130.971 6.2083C132.067 7.05238 132.124 7.07411 133.105 7.03734C134.028 7.00224 134.091 7.02063 133.847 7.26466C133.624 7.48696 133.594 7.81623 133.669 9.22526C133.718 10.1579 133.862 11.1257 133.991 11.3781C134.123 11.6405 134.582 12.0182 135.056 12.2589C135.623 12.5464 135.889 12.7838 135.889 13.0044C135.889 13.6245 135.484 14.2078 134.809 14.5588L134.131 14.9115L134.592 15.0787C135.019 15.2341 135.246 15.6837 134.898 15.6837ZM53.3506 55.8185C52.3427 56.6308 51.7501 56.7278 51.2294 56.1661C50.7473 55.6463 50.7958 55.2987 51.6011 53.5721C52.2054 52.2717 52.1318 52.0611 51.1976 52.4472C50.9482 52.5508 50.3321 52.6511 49.8298 52.6712C48.9609 52.7063 48.8689 52.7564 47.9129 53.6891C46.7377 54.8357 45.847 55.4658 44.8543 55.8536C43.7878 56.2698 43.3542 56.2113 42.703 55.5611C42.1756 55.0346 42.1371 54.9293 42.2326 54.2657C42.3849 53.2043 43.0361 51.9992 44.3051 50.4247C45.9726 48.3572 47.7087 47.0334 48.6144 47.137C48.889 47.1688 49.1032 47.3058 49.1351 47.4696C49.1903 47.7604 47.1997 50.2793 46.9084 50.286C46.5703 50.296 44.6567 53.069 44.4039 53.9181C44.3118 54.2239 44.357 54.2941 44.6383 54.2941C45.1724 54.2941 46.3242 53.6824 47.1445 52.9637L47.8828 52.3168L47.4375 51.7886C47.0323 51.3073 46.8331 50.6169 47.0993 50.6169C47.1596 50.6169 47.4609 50.8994 47.7706 51.2437L48.3315 51.8705L49.0162 51.1184C49.3912 50.7039 49.8449 50.0654 50.0224 49.6977C50.2417 49.243 50.322 49.1628 50.2718 49.4469C50.1027 50.388 49.8566 51.1501 49.5854 51.5613C49.2087 52.138 49.4883 52.3352 50.5079 52.2082C51.874 52.041 52.5152 51.7234 52.917 51.0181C53.6653 49.701 55.0398 47.7805 55.3528 47.6134C55.5303 47.5181 55.9053 47.4412 56.1866 47.4412C56.5951 47.4412 56.7173 47.5264 56.8043 47.8741C56.9416 48.4207 56.4929 49.4269 55.0013 51.9123C54.3818 52.9469 53.9298 53.7927 53.9985 53.7927C54.0671 53.7927 54.5342 53.4333 55.0364 52.9921C57.3049 51.003 60.9545 48.3505 61.6727 48.1699C62.3022 48.0128 62.3156 48.2218 61.6979 48.5393C60.5527 49.1277 58.604 50.744 56.3841 52.9453C55.1268 54.1922 53.7624 55.4859 53.3506 55.8185ZM95.1155 47.259C96.3627 48.3872 96.6406 48.5694 96.7662 48.3455C96.8482 48.1984 96.8717 47.839 96.8164 47.5498C96.7545 47.2306 96.7712 47.1103 96.8583 47.2456C96.9688 47.4161 97.024 47.386 97.0943 47.1203C97.1446 46.9297 97.1178 46.8144 97.034 46.8662C96.8231 46.9966 96.8432 46.8562 97.1345 46.1559C97.2751 45.8232 97.4358 45.5993 97.4944 45.6578C97.5966 45.7597 98.8706 43.9479 99.2958 43.0954C99.4398 42.808 99.4699 42.2881 99.3946 41.424C99.269 39.9999 99.3025 39.806 99.5352 40.6117C99.624 40.9209 99.7043 41.0379 99.7127 40.8724C99.7562 39.9899 98.6781 38.9168 97.7489 38.9168C96.5234 38.9168 95.0435 40.0367 95.0401 40.9643C95.0401 41.3337 94.8141 41.3388 94.5161 40.9777C93.9955 40.3476 92.9692 39.7525 92.4 39.7525C91.1444 39.7525 89.9189 41.7148 90.3258 43.072C90.5401 43.7857 91.1109 44.5997 91.3989 44.5997C91.4993 44.5997 91.4056 44.4125 91.1896 44.1819C90.9736 43.9512 90.833 43.764 90.8782 43.764C90.9234 43.764 91.1812 44.0014 91.4508 44.2905C91.722 44.5814 91.8308 44.7552 91.6919 44.6766C91.4809 44.558 91.4742 44.578 91.6567 44.802C91.7756 44.9491 92.2661 45.2566 92.7449 45.4856C93.2254 45.7163 94.2918 46.5135 95.1155 47.259ZM66.8542 55.9489C66.049 56.5021 65.9519 56.5205 65.1215 56.2815C63.0857 55.6948 64.1823 52.2566 67.4904 48.8552C69.044 47.259 70.4386 46.542 71.6858 46.7008C72.1797 46.7643 72.6769 46.9498 72.8996 47.1537C73.3616 47.5783 73.3901 48.292 72.9548 48.5644C72.7405 48.6981 72.6652 48.8803 72.7254 49.116C72.7941 49.3717 72.7271 49.4904 72.481 49.5539C72.2969 49.6024 72.0575 49.8347 71.9503 50.0704C71.8415 50.3061 71.6038 50.6938 71.4213 50.9345C71.2371 51.1735 70.5691 52.046 69.938 52.8734C68.7192 54.468 68.0747 55.1115 66.8542 55.9489ZM75.8661 20.4039C75.7858 20.775 75.7439 21.0357 75.5983 21.1193C75.2936 21.2948 74.5335 20.678 72.0139 18.6355C71.9085 18.5486 71.798 18.46 71.6858 18.3697C69.3738 16.4944 68.8498 16.3005 65.828 16.1918C63.6934 16.115 63.3117 16.0615 63.2665 15.8308C63.2347 15.6637 63.3636 15.5199 63.5997 15.4564C63.9764 15.3561 63.973 15.3461 63.4591 15.0302C62.5734 14.487 62.5885 14.3065 63.5059 14.4335L64.3196 14.5455L63.4072 13.9872C62.9049 13.6797 62.3441 13.1699 62.1616 12.8556L61.8284 12.2857L62.2369 12.401C62.4613 12.4645 62.8714 12.5581 63.1477 12.6099C63.6147 12.6985 63.6014 12.6751 62.9367 12.2623C62.2955 11.8628 61.7246 11.1224 61.7246 10.6878C61.7246 10.5975 62.3457 10.8482 63.1058 11.246C63.9278 11.6756 65.4597 12.2489 66.8877 12.6584C68.2069 13.0378 69.6952 13.5409 70.1941 13.7749C71.3878 14.3399 72.707 15.5651 73.7032 17.0343C74.1485 17.6895 74.8416 18.592 75.2467 19.0417C75.8996 19.7671 75.9699 19.9192 75.8661 20.4039ZM102.858 49.0558C102.194 49.4102 100.742 49.5121 100.23 49.2413C99.8851 49.0575 99.8081 48.887 99.7931 48.2786C99.7763 47.5799 99.8366 47.478 100.881 46.445C101.491 45.8433 102.38 45.0878 102.858 44.7669C103.337 44.446 103.709 44.1134 103.685 44.0281C103.662 43.9445 103.27 43.749 102.815 43.5935C101.317 43.0837 101.062 42.9383 100.896 42.5021C100.64 41.8285 100.695 41.4641 101.226 40.361C101.784 39.1993 103.203 37.6649 104.536 36.7807C105.602 36.0737 106.86 35.8648 107.315 36.3194C107.469 36.4748 107.596 36.652 107.596 36.7139C107.593 37.0899 106.814 37.9875 106.155 38.3769C104.343 39.4467 102.909 40.8674 102.909 41.5928C102.909 41.8686 104.596 43.2626 104.931 43.2626C105.021 43.2626 105.284 43.1389 105.515 42.9885C106.111 42.599 106.178 42.7979 105.658 43.4164C105.298 43.8409 105.229 44.0582 105.304 44.5229C105.401 45.1145 105.293 45.2416 104.97 44.919C104.867 44.817 104.683 44.7619 104.559 44.7936C104.228 44.8772 101.402 47.9059 101.402 48.1766C101.402 48.6881 102.924 48.7533 103.707 48.2769C104.322 47.9025 104.415 47.8775 104.415 48.0914C104.415 48.1716 104.171 48.3672 103.871 48.5226C103.572 48.6781 103.116 48.9188 102.858 49.0558ZM65.2655 65.3257C64.2911 66.0527 63.9144 66.1213 63.1477 65.7118C62.4864 65.3591 62.3993 65.2053 62.3976 64.3813C62.3943 63.5723 63.2464 61.7922 64.1923 60.6373C64.934 59.7313 68.2789 56.4369 68.3677 56.5255C68.4028 56.5606 68.1668 56.9066 67.842 57.296C66.3034 59.1346 64.3045 62.6647 64.4468 63.2949C64.5288 63.6542 65.5618 62.6146 66.5261 61.2072C67.7365 59.4338 69.6618 55.7767 69.4492 55.6463C69.3219 55.5678 69.4307 55.3622 69.7756 55.0363C70.0619 54.7655 70.5256 54.0752 70.8069 53.5002C71.3443 52.4087 71.7143 52.0728 71.3778 52.9837C71.2221 53.4049 71.2288 53.5253 71.4062 53.5871C71.5686 53.6423 71.5167 53.7843 71.217 54.1036C70.9592 54.3794 70.4804 55.5126 69.933 57.1356C68.3928 61.702 67.1154 63.9451 65.2655 65.3257ZM26.3667 19.3175C26.062 19.6852 25.466 19.5632 25.25 19.0918C25.0441 18.6388 25.1412 18.3781 25.697 17.9101C25.8259 17.8015 25.8795 17.6276 25.8159 17.5257C25.7322 17.3886 25.6367 17.3919 25.4643 17.534C25.2684 17.6978 25.2249 17.6209 25.2065 17.0827C25.1529 15.55 25.25 14.9316 25.5899 14.6407C26.0971 14.2078 27.2054 13.9454 27.4984 14.1878C27.629 14.2964 27.8449 14.3416 27.9772 14.2914C28.1111 14.2396 28.2568 14.2881 28.302 14.3984C28.3623 14.5438 28.4275 14.5338 28.5481 14.3616C28.6887 14.161 28.7942 14.1644 29.273 14.39C29.581 14.5354 30.0347 14.7059 30.2825 14.7678C30.5621 14.8363 30.7529 15.0101 30.7847 15.2241C30.8132 15.4146 30.9756 15.5901 31.1447 15.6135C31.5749 15.6754 31.652 15.789 31.4996 16.1367C31.4276 16.3005 31.3807 16.4927 31.3958 16.5612C31.4109 16.6298 31.359 16.6866 31.282 16.6866C31.205 16.6866 31.0392 16.9941 30.9153 17.3719C30.6943 18.0388 30.2842 18.3564 29.5392 18.4366C29.3785 18.455 29.196 18.5202 29.1324 18.582C29.0704 18.6439 28.8444 18.5302 28.6284 18.328C28.3422 18.0605 28.1881 18.0104 28.0525 18.1458C27.9504 18.2477 27.6223 18.2912 27.3243 18.2427C26.8354 18.1642 26.7685 18.2026 26.6613 18.6322C26.5944 18.8929 26.4621 19.2021 26.3667 19.3175ZM20.1372 39.2695C20.0351 39.3982 19.6333 39.5085 19.2315 39.5169C18.6087 39.5302 18.4547 39.46 18.1232 39.0154C17.1421 37.6983 17.1187 37.6231 17.3547 36.6888C17.4753 36.2141 17.79 35.5773 18.0529 35.2764C18.3157 34.9739 18.5317 34.6697 18.5317 34.5995C18.5317 34.4073 19.6935 34.4056 20.4653 34.5961C21.0362 34.7365 21.1902 34.8719 21.4514 35.4603C21.7862 36.2141 21.9536 37.7468 21.6992 37.7468C21.6154 37.7468 21.5451 37.8187 21.5451 37.9073C21.5451 38.2466 20.77 39.1876 20.549 39.1141C20.4218 39.0723 20.2376 39.1425 20.1372 39.2695ZM87.5483 21.0374C86.1906 22.8158 84.9852 24.3 84.8697 24.3368C84.709 24.3869 84.6604 23.8387 84.6604 21.96C84.6604 19.8908 84.7006 19.5013 84.925 19.4161C85.0689 19.3609 85.2548 19.1403 85.3351 18.928C85.4841 18.5402 85.8005 18.4182 89.1388 17.4588C89.9658 17.2215 90.0177 17.2231 90.0177 17.5056C90.0177 17.6711 88.9061 19.2606 87.5483 21.0374ZM17.4669 65.6182C17.5322 65.8689 17.4184 65.9107 16.6767 65.9124C15.9033 65.914 15.7425 65.8472 15.1733 65.2973C14.5221 64.6654 14.2978 63.9367 14.5422 63.2364C14.6058 63.0525 14.7012 62.7015 14.7531 62.4575C14.867 61.9243 16.2364 61.0802 16.7688 61.2156C16.9563 61.2624 17.4284 61.59 17.8202 61.9443C18.4814 62.5427 18.5317 62.6497 18.5317 63.4453C18.5317 63.9166 18.4513 64.3529 18.3542 64.4131C18.2554 64.4732 18.1081 64.7039 18.0227 64.9245C17.939 65.1452 17.7632 65.3257 17.631 65.3257C17.4853 65.3257 17.4217 65.441 17.4669 65.6182ZM26.735 47.9426C26.735 48.2268 26.6278 48.2753 26.0235 48.2636C24.9755 48.2418 23.8889 47.6986 23.8889 47.1955C23.8889 46.9765 23.7667 46.674 23.6161 46.5236C23.3917 46.3013 23.3783 46.1742 23.534 45.8299C23.6395 45.5993 23.683 45.3402 23.6294 45.255C23.5759 45.1697 23.6512 45.0544 23.7952 44.9992C23.9392 44.9441 24.0564 44.7936 24.0564 44.6649C24.0564 44.5379 24.1702 44.4326 24.3075 44.4326C24.4448 44.4326 24.5586 44.3724 24.5586 44.3006C24.5586 44.1017 25.8895 43.7841 25.9967 43.9562C26.0469 44.0365 26.3851 44.2538 26.7467 44.4376C27.1083 44.6231 27.4046 44.8856 27.4046 45.0209C27.4046 45.1563 27.4984 45.27 27.6139 45.2717C27.773 45.2733 27.7713 45.3068 27.6039 45.4121C27.4699 45.4973 27.4247 45.7062 27.4867 45.9553C27.5972 46.3949 27.1669 47.6083 26.9007 47.6083C26.8086 47.6083 26.735 47.7588 26.735 47.9426ZM19.1461 86.9926C18.7677 87.6662 17.862 88.7343 17.862 88.507C17.862 88.3565 17.6209 88.2161 17.2392 88.1442C16.896 88.0807 16.4557 87.8651 16.2615 87.6662C15.8179 87.2149 15.473 86.2655 15.7024 86.1251C15.7928 86.0683 15.8262 85.8945 15.776 85.7374C15.7158 85.5502 15.9116 85.2309 16.3436 84.808C16.9379 84.2297 17.0668 84.1762 17.6327 84.2682C17.9775 84.3233 18.4145 84.5239 18.602 84.7111C19.0389 85.1473 19.3788 86.5764 19.1461 86.9926ZM58.4433 59.3837C58.0499 59.7765 57.4187 59.7029 57.1073 59.2282C56.8445 58.8271 56.8646 58.7703 57.787 57.2643C58.6208 55.9054 60.5209 53.1843 61.9406 51.3156C62.1984 50.978 62.6421 50.3378 62.925 49.8949C63.2782 49.345 63.4959 49.1427 63.6131 49.2597C63.7303 49.3767 63.1996 50.3211 61.9389 52.2383C60.1794 54.9142 59.3457 56.5991 58.8819 58.4226C58.7832 58.8104 58.5856 59.2433 58.4433 59.3837ZM66.2448 53.9615C66.2448 54.5565 67.1807 53.7927 70.5574 50.4448L72.4074 48.6112H71.8281C70.9023 48.6112 69.7538 49.2464 68.6723 50.3579C67.7666 51.2889 66.2448 53.547 66.2448 53.9615ZM110.4 81.6958C111.197 82.1705 113.288 80.835 113.288 79.8505C113.288 79.4444 112.627 77.8615 112.458 77.8615C112.393 77.8615 111.837 78.3813 111.222 79.0148C110.221 80.0511 110.107 80.2383 110.107 80.845C110.107 81.3114 110.198 81.5755 110.4 81.6958ZM83.4685 19.6685C82.7653 20.0512 82.1442 20.3638 82.0873 20.3638C81.8211 20.3638 82.0237 19.6384 82.392 19.269C82.69 18.9715 82.9863 18.8595 83.4668 18.8595C84.6789 18.8595 84.7341 18.7308 83.8669 17.9469L83.08 17.2348L84.0963 15.8392C85.0656 14.512 85.5561 14.014 85.7269 14.1861C85.8056 14.2663 84.9216 18.8311 84.8078 18.923C84.7726 18.9497 84.1699 19.2857 83.4685 19.6685ZM138.047 20.7599C137.491 21.1477 136.027 21.1276 135.663 20.7265C135.081 20.083 135.467 18.8444 136.36 18.5051C136.885 18.3062 139.072 18.6472 139.067 18.928C139.058 19.3409 138.411 20.5059 138.047 20.7599ZM87.7158 17.5023C85.6264 18.1107 85.4439 18.1291 85.5595 17.7313C85.608 17.5708 85.7737 16.7802 85.9294 15.9762C86.0851 15.1723 86.276 14.5137 86.353 14.5137C86.5522 14.5137 89.5155 16.7083 89.5155 16.8554C89.5155 16.9223 88.7052 17.2131 87.7158 17.5023ZM20.7884 104.075C19.1611 104.815 17.9842 102.982 19.126 101.486C19.6835 100.755 20.3665 100.729 21.0479 101.409C21.4598 101.82 21.5183 101.985 21.443 102.537C21.2823 103.732 21.2203 103.878 20.7884 104.075ZM84.3256 21.8681C84.3256 22.9712 84.262 23.8738 84.1833 23.8738C84.1046 23.8738 83.7397 23.6549 83.3697 23.3891C82.8574 23.018 82.6548 22.7272 82.5108 22.1572C82.407 21.7461 82.2765 21.2914 82.2212 21.1477C82.1475 20.9521 82.3819 20.7516 83.1353 20.3738C83.6928 20.093 84.1883 19.8623 84.2369 19.8623C84.2854 19.8623 84.3256 20.7649 84.3256 21.8681ZM20.7583 60.1559C20.5222 60.5537 20.3548 60.6456 19.8609 60.6456C19.1042 60.6456 18.6723 60.2077 18.6505 59.4138C18.6137 58.1084 20.1958 57.8794 20.7817 59.1062C21.0278 59.6244 21.0261 59.7029 20.7583 60.1559ZM14.1923 73.4255C14.1504 73.4472 14.1119 73.4673 14.0768 73.4857C13.839 73.6094 13.7302 73.6662 13.6331 73.6495C13.5343 73.6344 13.449 73.5458 13.2581 73.377C12.5951 72.7937 12.4997 72.441 12.8496 71.8677C13.1074 71.4448 13.2799 71.3429 13.7369 71.3429C14.05 71.3429 14.3798 71.4365 14.4702 71.5518C14.7062 71.8493 14.8301 72.6717 14.656 72.7787C14.574 72.8288 14.5489 72.9374 14.6008 73.0193C14.651 73.1012 14.4668 73.2834 14.1923 73.4255ZM137.768 26.7805C137.294 27.0195 136.807 27.2167 136.686 27.2167C136.266 27.2167 135.722 26.6969 135.722 26.2941C135.722 25.4868 136.907 25.3029 137.972 25.9447L138.63 26.3442L137.768 26.7805ZM22.5429 22.8826C22.2366 23.456 20.9374 23.1334 21.1283 22.53C21.1885 22.3411 21.145 22.0753 21.0328 21.9383C20.8755 21.7511 20.8721 21.5906 21.0144 21.2781C21.2672 20.7248 21.4899 20.7566 22.1562 21.4419C22.7472 22.0486 22.8275 22.3511 22.5429 22.8826ZM136.057 31.5625C135.873 31.7463 135.628 31.8951 135.513 31.8951C135.337 31.8934 133.924 31.1596 133.736 30.9724C133.597 30.8337 134.838 30.227 135.262 30.2253C135.712 30.2253 136.392 30.7284 136.392 31.061C136.392 31.153 136.241 31.3786 136.057 31.5625ZM137.023 17.0276C137.05 17.163 136.86 17.5173 136.606 17.8148L136.14 18.3547L135.578 17.8867C134.918 17.3368 134.923 16.9005 135.598 16.5245C136.01 16.2955 136.104 16.2955 136.515 16.5245C136.768 16.6665 136.996 16.8922 137.023 17.0276ZM126.293 41.7165C125.988 41.9238 125.659 42.0926 125.56 42.0926C125.366 42.0926 125.181 41.5544 125.176 40.9761C125.175 40.6401 125.871 39.9197 126.199 39.9197C126.328 39.9197 126.851 40.9794 126.847 41.2351C126.847 41.2936 126.598 41.5092 126.293 41.7165ZM125.558 23.252C125.479 23.6582 125.431 23.6749 124.321 23.6582C123.238 23.6415 122.794 23.4376 123.46 23.2637C123.623 23.222 123.884 22.9662 124.04 22.6954C124.54 21.8213 125.747 22.2642 125.558 23.252ZM116.514 54.6702C116.007 55.2318 115.13 54.8958 115.13 54.142C115.13 53.883 115.294 53.4634 115.493 53.2094C115.843 52.7664 115.867 52.7597 116.098 53.0606C116.23 53.2344 116.436 53.6005 116.558 53.8763C116.745 54.3058 116.74 54.4195 116.514 54.6702ZM26.2579 27.1632C25.9197 27.419 25.7305 27.439 25.7305 27.2167C25.7305 27.1248 25.5798 27.0496 25.3957 27.0496C25.1378 27.0496 25.0608 26.9376 25.0608 26.5598C25.0608 25.9364 25.4526 25.5453 26.077 25.5453C26.4688 25.5453 26.5709 25.6221 26.5877 25.9213C26.6228 26.6217 26.5358 26.9526 26.2579 27.1632ZM114.092 58.4393C113.824 58.7067 113.605 58.6917 113.158 58.3791C112.706 58.0632 112.689 57.7925 113.091 57.2977C113.387 56.9317 113.409 56.93 113.844 57.2158C114.32 57.5267 114.435 58.0967 114.092 58.4393ZM33.3261 31.9787C33.2139 32.2678 32.8121 32.2979 32.3836 32.0505C32.2228 31.9553 32.0236 31.9202 31.9433 31.9686C31.8612 32.0188 31.7039 31.9502 31.59 31.8149C31.4226 31.6109 31.4594 31.5407 31.806 31.4087C32.0387 31.3201 32.2764 31.1697 32.3367 31.0711C32.6732 30.5295 33.5672 31.3502 33.3261 31.9787ZM36.5254 21.2948C36.3094 21.9032 36.0951 21.9517 35.5427 21.5187C34.6671 20.8318 35.4556 19.9325 36.358 20.5911C36.6325 20.7917 36.661 20.912 36.5254 21.2948ZM132.067 37.8053C131.662 38.1714 131.51 38.148 131.16 37.6683C130.778 37.1451 130.79 36.9629 131.223 36.7322C131.481 36.5952 131.687 36.5918 131.977 36.7239C132.451 36.9395 132.491 37.4226 132.067 37.8053ZM134.759 33.6133C134.599 33.6601 134.347 33.747 134.2 33.8072C134.044 33.8724 133.77 33.7771 133.53 33.5749L133.127 33.2339L133.522 32.8996C134.013 32.4834 134.068 32.4851 134.612 32.9113C135.126 33.3158 135.164 33.4963 134.759 33.6133ZM24.1468 51.8872C23.6746 52.2299 23.4034 52.1747 23.1824 51.69C22.933 51.1435 23.1808 50.7005 23.7349 50.7005C24.3091 50.7005 24.6038 51.553 24.1468 51.8872ZM112.997 89.799C112.836 89.9611 116.496 89.7706 117.362 89.5717C118.363 89.341 118.328 89.1672 117.306 89.2992C116.799 89.3627 115.652 89.4731 114.755 89.5433C113.858 89.6118 113.067 89.7271 112.997 89.799ZM137.282 24.3518C136.767 24.6193 136.487 24.5892 136.162 24.2315C135.938 23.9841 135.924 23.8872 136.094 23.7518C136.536 23.3991 136.979 23.3874 137.378 23.7184L137.383 23.7217C137.594 23.8972 137.701 23.9858 137.694 24.0627C137.686 24.1429 137.552 24.2114 137.282 24.3518ZM28.9716 28.136C28.8494 28.4552 28.4275 28.4619 28.3053 28.1444C28.1748 27.8067 28.3857 27.5226 28.7172 27.5878C28.8695 27.6179 29.1223 27.4908 29.2763 27.3036C29.494 27.0429 29.6028 27.0111 29.7585 27.1632C30.0414 27.4407 29.8271 27.8853 29.4136 27.8853C29.2244 27.8853 29.0252 27.9973 28.9716 28.136ZM7.55597 70.8531C7.16422 71.2844 7.0035 71.2593 6.80427 70.7378C6.61175 70.2314 6.83943 69.8386 7.32493 69.8386C7.76691 69.8386 7.90921 70.4637 7.55597 70.8531ZM1.25448 60.1592C1.32145 60.7342 0.948111 61.0518 0.546316 60.7593C0.0942962 60.4283 0.256688 59.7263 0.785719 59.7263C1.1105 59.7263 1.21597 59.8216 1.25448 60.1592ZM25.5296 20.1281C25.5564 20.3203 25.481 20.5577 25.3605 20.658C25.0341 20.9287 24.5586 20.5944 24.5586 20.093C24.5586 19.7336 24.6239 19.6802 25.019 19.7253C25.3371 19.7621 25.4944 19.8874 25.5296 20.1281ZM114.889 85.6471C114.328 85.968 112.284 86.1903 112.284 85.9313C112.284 85.8393 112.793 85.7123 113.414 85.6488C114.035 85.5853 114.731 85.4967 114.962 85.4499C115.356 85.3713 115.351 85.383 114.889 85.6471ZM5.29922 66.9219C5.04475 67.2278 4.89742 67.2278 4.64295 66.9219C4.34998 66.5692 4.49897 66.0862 4.91584 66.026C5.35279 65.9642 5.60559 66.5542 5.29922 66.9219ZM13.0673 69.5879C13.0154 69.7266 12.786 69.8386 12.56 69.8386C12.2084 69.8386 12.1548 69.77 12.2 69.3789C12.2369 69.0597 12.3624 68.9042 12.6085 68.8691C12.9936 68.814 13.2246 69.1767 13.0673 69.5879ZM9.90647 85.2058C10.0672 85.709 9.65367 86.0834 9.25857 85.7925C8.8685 85.5101 8.97732 84.9785 9.43603 84.9133C9.68213 84.8782 9.8328 84.9735 9.90647 85.2058ZM0.743865 64.9663C0.447541 65.2622 0.149543 65.1953 0.0256562 64.8042C-0.0781409 64.4766 0.144521 64.1657 0.486046 64.159C0.742191 64.1523 0.93974 64.7707 0.743865 64.9663ZM49.8382 76.8787C49.8382 76.9873 49.9939 77.0258 50.2149 76.9706C50.4225 76.9188 50.8561 76.8118 51.1775 76.7333L51.7635 76.5879L51.0938 76.4742C50.1764 76.3188 49.9688 76.3288 50.0893 76.5244C50.1462 76.6163 50.1128 76.6915 50.0157 76.6915C49.9186 76.6915 49.8382 76.7751 49.8382 76.8787ZM91.7119 89.4095C91.9999 89.5917 93.0044 89.4229 93.4447 89.1204C93.7243 88.9282 93.7326 88.8931 93.4949 88.8931C93.3409 88.8931 92.8253 88.9766 92.3481 89.0786C91.7438 89.2073 91.5512 89.3093 91.7119 89.4095ZM28.2417 28.6257C28.2417 29.0302 27.6474 29.2642 27.3946 28.96C27.2205 28.7511 27.2305 28.6558 27.4482 28.4385C27.7512 28.136 28.2417 28.253 28.2417 28.6257ZM29.9812 24.1112C29.8539 24.4421 29.5174 24.4505 29.2529 24.1312C28.9817 23.807 29.1725 23.5395 29.6748 23.5395C30.095 23.5395 30.1569 23.6549 29.9812 24.1112ZM85.166 74.4133C85.1644 74.4919 85.3318 74.5053 85.5394 74.4401C85.747 74.3749 86.1806 74.2679 86.502 74.201L87.088 74.0807L86.2693 73.952C85.4724 73.8266 85.1727 73.9503 85.166 74.4133ZM27.9069 29.7857C27.9069 29.901 27.7997 30.1401 27.6675 30.3189C27.4348 30.6348 27.4231 30.6315 27.2657 30.2253C27.1485 29.9228 27.1636 29.7439 27.3209 29.5785C27.5603 29.3294 27.9069 29.4514 27.9069 29.7857ZM129.086 40.3676C129.245 40.6468 129.007 40.7404 128.565 40.5732C128.135 40.4111 128.088 40.2105 128.418 39.9381C128.647 39.7475 128.781 39.8328 129.086 40.3676ZM45.9877 24.9853C45.9877 25.3397 45.3532 25.2477 45.2343 24.8784C45.0686 24.3569 45.3013 24.1412 45.6696 24.4739C45.8437 24.6327 45.9877 24.8633 45.9877 24.9853ZM132.876 35.3182C132.876 35.4603 132.732 35.5739 132.551 35.5739C132.153 35.5739 132.015 35.3817 132.201 35.0825C132.375 34.8001 132.876 34.9739 132.876 35.3182ZM30.0833 34.4039C30.0833 34.5878 29.9745 34.7382 29.8422 34.7382C29.5459 34.7382 29.3567 34.4624 29.4973 34.2368C29.6798 33.9426 30.0833 34.0579 30.0833 34.4039ZM58.2089 96.7288C58.2089 96.9394 57.6749 97.0514 57.2982 96.9193C57.0002 96.8157 56.9985 96.799 57.2714 96.6937C57.6883 96.5349 58.2089 96.555 58.2089 96.7288ZM108.433 90.2302C108.433 90.4425 109.108 90.4425 109.438 90.2302C109.625 90.1099 109.528 90.0681 109.061 90.0664C108.716 90.0647 108.433 90.1383 108.433 90.2302ZM105.644 90.5327C105.206 90.6915 105.234 90.7049 106.006 90.7066C106.706 90.7082 106.784 90.6798 106.481 90.5344C106.232 90.4141 105.972 90.4124 105.644 90.5327ZM18.1968 109.452C18.1968 109.636 18.1265 109.786 18.0395 109.786C17.8151 109.786 17.6561 109.482 17.7783 109.285C17.9541 109.002 18.1968 109.099 18.1968 109.452ZM47.7572 75.2056C47.8845 75.4112 48.2879 75.3928 48.4219 75.1755C48.5809 74.9214 48.4554 74.8512 48.0335 74.9616C47.8309 75.015 47.707 75.1254 47.7572 75.2056ZM12.0025 77.7779C12.0025 78.0387 11.8049 78.1089 11.6124 77.9167C11.4199 77.7245 11.4902 77.5272 11.7514 77.5272C11.8887 77.5272 12.0025 77.6392 12.0025 77.7779ZM27.7395 25.6155C27.7395 25.7609 27.6206 25.8795 27.475 25.8795C27.3293 25.8795 27.2389 25.791 27.2757 25.6806C27.3795 25.3714 27.7395 25.3196 27.7395 25.6155ZM9.65869 76.6915C9.65869 76.7834 9.54485 76.8587 9.40757 76.8587C9.27029 76.8587 9.15645 76.7834 9.15645 76.6915C9.15645 76.5996 9.27029 76.5244 9.40757 76.5244C9.54485 76.5244 9.65869 76.5996 9.65869 76.6915ZM7.14747 80.2751C7.14747 80.4188 7.07214 80.5358 6.98006 80.5358C6.88798 80.5358 6.81264 80.4656 6.81264 80.3787C6.81264 80.2918 6.88798 80.1748 6.98006 80.118C7.07214 80.0611 7.14747 80.1313 7.14747 80.2751ZM97.8862 45.1012C97.7874 45.285 97.6686 45.4355 97.6234 45.4355C97.5765 45.4355 97.62 45.285 97.7188 45.1012C97.8176 44.9173 97.9364 44.7669 97.9816 44.7669C98.0285 44.7669 97.985 44.9173 97.8862 45.1012ZM24.0681 32.0188C24.0764 32.084 23.9911 32.1692 23.8806 32.206C23.7701 32.2427 23.7098 32.1826 23.7466 32.0723C23.8186 31.8566 24.048 31.8182 24.0681 32.0188ZM76.4772 82.1621C76.5927 82.2758 76.643 82.4112 76.5927 82.463C76.5408 82.5132 76.4471 82.4212 76.3835 82.2557C76.2931 82.0184 76.3131 81.9983 76.4772 82.1621Z" fill="black"/>
<path d="M95.1133 47.2572C94.2897 46.5118 93.2232 45.7145 92.7427 45.4838C92.2639 45.2548 91.7734 44.9473 91.6545 44.8002C91.4721 44.5762 91.4788 44.5562 91.6897 44.6748C91.8287 44.7534 91.7198 44.5796 91.4486 44.2887C91.1791 43.9996 90.9213 43.7622 90.8761 43.7622C90.8309 43.7622 90.9715 43.9494 91.1875 44.1801C91.4034 44.4108 91.4972 44.598 91.3967 44.598C91.1088 44.598 90.5379 43.784 90.3236 43.0703C89.9168 41.713 91.1423 39.7508 92.3979 39.7508C92.9671 39.7508 93.9933 40.3458 94.514 40.9759C94.812 41.337 95.038 41.3319 95.038 40.9626C95.0413 40.0349 96.5213 38.915 97.7468 38.915C98.6759 38.915 99.7541 39.9881 99.7105 40.8706C99.7022 41.0361 99.6218 40.9191 99.5331 40.6099C99.3004 39.8043 99.2669 39.9981 99.3925 41.4222C99.4678 42.2863 99.4377 42.8062 99.2937 43.0937C98.8684 43.9461 97.5944 45.7579 97.4923 45.656C97.4337 45.5975 97.273 45.8215 97.1324 46.1541C96.8411 46.8544 96.821 46.9948 97.0319 46.8644C97.1156 46.8126 97.1424 46.9279 97.0922 47.1185C97.0219 47.3843 96.9666 47.4143 96.8561 47.2439C96.7691 47.1085 96.7523 47.2288 96.8143 47.5481C96.8695 47.8372 96.8461 48.1966 96.764 48.3437C96.6385 48.5676 96.3606 48.3855 95.1133 47.2572ZM97.884 45.0994C97.9828 44.9155 98.0264 44.7651 97.9795 44.7651C97.9343 44.7651 97.8154 44.9155 97.7166 45.0994C97.6179 45.2832 97.5743 45.4337 97.6212 45.4337C97.6664 45.4337 97.7853 45.2832 97.884 45.0994Z" fill="#D80A0A"/>
<path d="M39.8137 87.7304L39.4621 87.7722V87.1638C39.4621 86.8295 39.5425 86.5554 39.6412 86.5554C39.7434 86.5554 39.7735 86.4133 39.7132 86.2211C39.6529 86.0306 39.6831 85.8868 39.7835 85.8868C39.8806 85.8868 39.9493 85.7548 39.9359 85.5943C39.9225 85.4339 39.9242 85.1146 39.9409 84.8839C39.9643 84.5396 40.0012 84.5095 40.1502 84.7168C40.2975 84.9207 40.3109 84.9073 40.2238 84.6433C40.1652 84.4644 40.2305 83.5986 40.3712 82.7211C40.5101 81.8419 40.7411 80.3359 40.8868 79.3732C41.0324 78.4104 41.2333 77.573 41.3338 77.5112C41.446 77.441 41.4727 77.1702 41.4024 76.7958C41.3304 76.4147 41.3539 76.1924 41.4627 76.1924C41.5715 76.1924 41.6351 75.818 41.6368 75.4152C41.6385 75.462 41.6385 75.5088 41.6385 75.5573C41.6385 76.5401 41.1362 79.7777 40.9755 79.8362C40.8985 79.8629 40.8734 80.0267 40.9186 80.1989C41.0157 80.5716 40.2841 85.5392 40.0079 86.3883C39.9627 86.527 39.899 86.893 39.8672 87.2022L39.8137 87.7304ZM75.9417 75.0157C75.7576 75.7161 75.7442 76.3011 75.7291 77.8973C75.7208 78.9587 75.7358 79.6507 75.781 80.0685C75.7777 80.0485 75.7727 80.0284 75.7676 80.0083C75.6153 79.303 75.5483 79.186 75.4445 79.4518C75.1951 80.0819 75.2754 78.5742 75.555 77.3457C75.7007 76.7039 75.7794 76.0704 75.7291 75.94C75.6823 75.8164 75.7777 75.4135 75.9417 75.0157ZM75.8463 80.4262C75.8664 80.4914 75.8898 80.5365 75.9166 80.5633C76.0322 80.6786 76.1259 80.8892 76.1259 81.0329C76.1259 81.4592 76.7872 82.574 77.4987 83.3479C78.0478 83.9463 78.1248 84.1101 77.9507 84.319C78.1248 84.1101 78.0411 83.9396 77.4585 83.3078C77.0718 82.8899 76.6901 82.5891 76.6081 82.6409C76.4339 82.7478 75.7475 81.2452 75.8748 81.038C75.9083 80.9845 75.8949 80.7388 75.8463 80.4262ZM90.9906 74.6346C90.5487 74.9372 89.8773 75.2013 89.3316 75.2414C89.0838 75.2581 88.913 75.3233 88.9499 75.3834C88.9884 75.4453 88.6971 75.5422 88.3053 75.6007C87.9136 75.6609 86.976 75.8648 86.2193 76.057L85.2416 76.3061C85.3622 76.2676 85.5179 76.2292 85.7188 76.1824C86.1976 76.0671 87.182 75.7612 87.9069 75.5005C88.6318 75.2397 89.3885 75.0676 89.5894 75.1177C89.8288 75.1779 90.0582 75.0909 90.2657 74.862C90.4616 74.648 90.696 74.5527 90.8852 74.6129C90.922 74.6246 90.9572 74.6313 90.9906 74.6346ZM65.8584 78.0377C65.85 78.4121 65.845 78.8283 65.8433 79.2846C65.8416 80.8708 66.3506 82.3851 67.3015 83.6488C67.1558 83.4799 67.0219 83.3211 66.9298 83.2125C66.6368 82.8598 66.5967 82.8465 66.677 83.1289C66.7289 83.3128 66.6435 83.2409 66.4862 82.9685C66.3288 82.6944 66.1781 82.2063 66.1497 81.882C66.1229 81.5561 66.0124 80.951 65.9069 80.5382C65.783 80.0551 65.7562 79.2762 65.8316 78.3653C65.8416 78.2567 65.85 78.148 65.8584 78.0377ZM115.617 87.9527C115.458 87.941 115.358 87.9226 115.311 87.8976C115.134 87.8023 114.531 87.7254 113.973 87.7254C112.46 87.7254 112.745 87.4446 114.342 87.361C114.79 87.3376 115.14 87.3025 115.433 87.249C115.232 87.3042 115.035 87.3493 114.851 87.3761C114.317 87.453 114.05 87.5265 114.263 87.5382C114.474 87.5499 114.871 87.6736 115.144 87.814C115.269 87.8792 115.4 87.926 115.617 87.9527ZM77.7163 95.2469C77.8519 95.4659 76.1292 95.4659 75.7911 95.2469C75.6136 95.1333 75.8446 95.0848 76.5762 95.0831C77.1471 95.0814 77.6594 95.155 77.7163 95.2469ZM113.001 89.8013C113.071 89.7295 113.861 89.6141 114.759 89.5456C115.219 89.5088 115.746 89.4637 116.22 89.4169C115.418 89.5506 114.727 89.7161 114.966 89.7646C115.04 89.7796 115.118 89.7913 115.199 89.7997C114.042 89.8715 112.91 89.8916 113.001 89.8013ZM83.2812 74.6831C83.3063 74.5527 83.3214 74.394 83.3214 74.2419C83.3247 73.7789 83.2561 73.697 82.7806 73.595C82.26 73.483 81.8113 73.3292 81.4848 73.1604C81.7142 73.2223 82.0306 73.2607 82.4776 73.2925C82.9782 73.3293 83.4135 73.3844 83.4453 73.4162C83.5089 73.4797 83.395 74.2485 83.2812 74.6831ZM46.0281 75.5773C46.2608 75.7077 46.6157 75.7779 47.123 75.808C47.6403 75.8398 48.0923 75.8949 48.1275 75.93C48.1526 75.9551 48.1492 76.1389 48.1241 76.388C48.099 76.2292 47.8998 76.1623 47.3055 76.0353C46.7061 75.9066 46.2909 75.7629 46.0281 75.5773ZM76.7571 72.6623C76.6499 72.9632 76.5093 73.351 76.3569 73.7722C76.3101 73.9026 76.2665 74.0229 76.2263 74.1366C76.2397 74.0346 76.2397 73.956 76.223 73.9109C76.1025 73.5967 76.2849 72.8245 76.454 72.9298C76.5227 72.9716 76.5511 72.8027 76.5177 72.552C76.4658 72.1743 76.4808 72.1542 76.6014 72.4317C76.6817 72.6155 76.7186 72.6958 76.7571 72.6623ZM108.437 90.2326C108.437 90.1406 108.72 90.0671 109.065 90.0688C109.532 90.0704 109.629 90.1122 109.441 90.2326C109.112 90.4448 108.437 90.4448 108.437 90.2326ZM20.9427 39.4808C20.9996 39.7115 20.9728 39.9488 20.8791 40.0056C20.782 40.0658 20.7117 39.897 20.7117 39.5978C20.7117 39.3605 20.6229 39.185 20.5108 39.1081C20.5258 39.1097 20.5392 39.1131 20.5526 39.1164C20.6598 39.1532 20.8958 38.9509 21.1118 38.6935C20.9293 38.9777 20.8774 39.2234 20.9427 39.4808ZM56.448 21.583C56.4497 21.583 56.4513 21.5813 56.4547 21.5796C56.6941 21.4459 56.5267 21.3473 55.5674 21.0565C55.2995 20.9746 55.0317 20.8743 54.7755 20.7589C55.3079 20.9829 55.8821 21.14 56.4279 21.1969L57.4592 21.3038L56.7058 21.5228C56.6271 21.5445 56.5417 21.5646 56.448 21.583ZM87.7612 94.0769C87.8232 94.1772 87.6105 94.2424 87.2272 94.2407C86.7534 94.239 86.6546 94.1972 86.8404 94.0769C87.1686 93.8663 87.6306 93.8663 87.7612 94.0769ZM82.0691 94.7455C82.0122 94.8374 81.7812 94.9126 81.5568 94.9126C81.3325 94.9126 81.1483 94.8374 81.1483 94.7455C81.1483 94.6535 81.3794 94.5783 81.6606 94.5783C81.9586 94.5783 82.1294 94.6485 82.0691 94.7455ZM105.648 90.5351C105.976 90.4148 106.235 90.4164 106.485 90.5368C106.788 90.6822 106.709 90.7106 106.009 90.7089C105.238 90.7073 105.209 90.6939 105.648 90.5351ZM95.5761 91.8087C96.2408 91.7185 96.81 91.6299 97.2453 91.5463C98.5494 91.2956 98.7721 91.4444 97.7693 91.7803C97.7843 91.767 97.7961 91.7519 97.8061 91.7369C97.9333 91.5313 97.6521 91.533 96.0482 91.7486C95.9193 91.7653 95.7603 91.7853 95.5761 91.8087ZM54.2783 97.0855C54.2214 97.1774 54.0288 97.2526 53.8497 97.2526C53.6706 97.2526 53.5249 97.1774 53.5249 97.0855C53.5249 96.9936 53.7175 96.9184 53.9535 96.9184C54.1963 96.9184 54.3369 96.9902 54.2783 97.0855ZM67.2814 72.8011C67.0822 73.0635 66.893 73.5047 66.667 74.2201C66.5782 74.4959 66.4895 74.765 66.4058 74.999C66.441 74.8352 66.4611 74.6647 66.4611 74.516C66.4611 74.1516 66.5263 73.8524 66.6034 73.8524C66.682 73.8524 66.8545 73.5933 66.9867 73.2791C67.0654 73.0919 67.1508 72.9398 67.2814 72.8011ZM105.423 45.8223C105.423 46.3254 105.298 46.4106 105.146 46.0111C105.09 45.8674 105.129 45.6651 105.234 45.5598C105.375 45.4194 105.423 45.4863 105.423 45.8223ZM83.1573 94.5783C83.1573 94.6703 83.0066 94.7455 82.8225 94.7455C82.6383 94.7455 82.4877 94.6703 82.4877 94.5783C82.4877 94.4864 82.6383 94.4112 82.8225 94.4112C83.0066 94.4112 83.1573 94.4864 83.1573 94.5783ZM88.9331 93.9098C88.8762 94.0017 88.7205 94.0769 88.5882 94.0769C88.456 94.0769 88.3472 94.0017 88.3472 93.9098C88.3472 93.8178 88.5029 93.7426 88.692 93.7426C88.8812 93.7426 88.99 93.8178 88.9331 93.9098ZM84.0781 94.4112C84.135 94.5031 84.0647 94.5783 83.9207 94.5783C83.7767 94.5783 83.6596 94.5031 83.6596 94.4112C83.6596 94.3193 83.7299 94.244 83.8169 94.244C83.904 94.244 84.0212 94.3193 84.0781 94.4112ZM14.1825 83.7139C14.1825 83.8059 14.1071 83.8811 14.0151 83.8811C13.923 83.8811 13.8477 83.8059 13.8477 83.7139C13.8477 83.622 13.923 83.5468 14.0151 83.5468C14.1071 83.5468 14.1825 83.622 14.1825 83.7139ZM48.1024 76.5802C48.0957 76.6387 48.0873 76.6989 48.0773 76.7591L47.9634 77.5246L46.6107 78.1631C47.5382 77.7251 48.0002 77.4126 48.0019 77.2254C48.0036 77.0716 48.0488 76.7824 48.1007 76.5852L48.1024 76.5802ZM76.4808 82.1645C76.3168 82.0007 76.2967 82.0208 76.3871 82.2581C76.4507 82.4236 76.5444 82.5155 76.5963 82.4654C76.6466 82.4136 76.5963 82.2782 76.4808 82.1645ZM17.1323 37.5804L17.355 36.7045C17.2077 37.2895 17.1641 37.5352 17.4035 37.9732L17.1323 37.5804ZM74.0332 70.2421C74.3195 70.1568 74.6024 70.0716 74.8536 69.9947C74.3095 70.1702 73.4891 70.4293 73.0287 70.5697C72.7609 70.6516 72.4662 70.7452 72.1582 70.8455C72.3875 70.7535 73.2213 70.4861 74.0332 70.2421ZM69.6687 71.7079C68.8568 72.0038 68.1553 72.2762 67.7753 72.4451C68.1603 72.2411 68.7412 72.0222 69.6687 71.7079ZM53.1867 19.0022C53.3843 19.049 53.607 19.0958 53.776 19.1243C53.8832 19.1443 53.9686 19.1594 54.0272 19.166C53.9669 19.2179 53.6722 19.1711 53.2068 19.0089C53.2001 19.0073 53.1934 19.0056 53.1867 19.0022ZM53.0244 19.5889C53.0428 19.6123 53.0629 19.6341 53.0829 19.6558C52.9323 19.507 52.805 19.3566 52.7063 19.2078C52.4685 18.8468 52.4501 18.8084 52.7548 18.8919C52.4836 18.8685 52.579 19.0841 53.0244 19.5889ZM89.3717 92.6445C89.1692 92.718 88.8879 92.7782 88.5598 92.8216C88.8879 92.7782 89.1692 92.7163 89.3717 92.6445C89.7501 92.5074 90.7295 92.3353 91.6101 92.245C90.6073 92.3704 89.6882 92.5325 89.3717 92.6445ZM90.989 73.4379C91.2669 73.4763 91.4427 73.5148 91.4644 73.5499C91.4812 73.5783 91.4929 73.6268 91.4979 73.6886C91.4376 73.5716 91.282 73.4947 90.989 73.4379ZM116.535 86.8328C116.878 86.6323 117.142 86.4267 117.142 86.3582C117.142 86.4785 116.893 86.6573 116.535 86.8328ZM53.9518 19.034C53.8798 18.9922 53.7844 18.9404 53.6656 18.8735C53.2838 18.6629 52.939 18.3688 52.6795 18.0479C52.939 18.3671 53.2855 18.6579 53.6656 18.8585C53.7961 18.927 53.8916 18.9855 53.9518 19.034ZM97.3273 91.9191C96.9874 92.026 96.6509 92.148 96.3931 92.255C96.7413 92.0946 97.1247 91.9592 97.3273 91.9191ZM96.1838 92.8501C96.3714 92.8701 96.5438 92.8133 96.6894 92.6812C96.8485 92.5392 97.4495 92.367 98.1091 92.245C97.4462 92.3687 96.8418 92.5442 96.6777 92.6913C96.5003 92.8517 96.3697 92.9002 96.1838 92.8501ZM20.119 39.2953C20.0822 39.3889 19.8913 39.4557 19.605 39.4841C19.8361 39.444 20.032 39.3738 20.119 39.2953ZM43.0029 87.1153C43.778 86.9248 44.2435 86.7944 44.5281 86.6674C44.2401 86.7961 43.7697 86.9298 42.9828 87.1237C42.581 87.224 42.1458 87.3226 41.7389 87.4095C42.1407 87.3192 42.5844 87.2173 43.0029 87.1153ZM66.0057 76.0002C65.9772 76.1339 65.9521 76.3161 65.9304 76.5485C65.9304 76.5234 65.9303 76.5016 65.9287 76.4833C65.9237 76.3479 65.9538 76.1707 66.0057 76.0002ZM77.6996 71.6779C78.0964 71.504 78.6823 71.3018 79.5579 71.0193C78.8146 71.26 78.1633 71.4907 77.6996 71.6779ZM75.252 70.4928C74.7732 70.8304 73.8959 71.2918 72.3725 72.0172C73.8524 71.3118 74.7631 70.8321 75.252 70.4928ZM96.0114 92.4372C95.9963 92.4456 95.9829 92.4556 95.9712 92.464C95.8775 92.5308 95.8139 92.5793 95.777 92.6177C95.7804 92.5709 95.8524 92.5174 96.0114 92.4372ZM83.1808 74.9572C83.1222 75.0391 82.4743 75.4069 81.7427 75.7746C82.4458 75.4219 83.077 75.0609 83.1858 74.9506C83.1841 74.9539 83.1824 74.9556 83.1808 74.9572ZM40.927 74.0814C41.1413 74.1917 41.2919 74.2953 41.3991 74.4257C41.2802 74.3037 41.1044 74.1733 40.927 74.0814ZM54.0439 21.827C54.1527 21.949 54.4708 22.1312 54.9982 22.3786C54.4641 22.1279 54.146 21.9473 54.0439 21.827ZM21.5454 37.9531C21.5471 37.9381 21.5487 37.923 21.5487 37.9096C21.5487 37.8211 21.619 37.7492 21.7028 37.7492C21.619 37.7492 21.5487 37.8277 21.5487 37.923C21.5487 37.9314 21.5471 37.9414 21.5454 37.9531ZM75.8497 69.6888C75.8112 69.6989 75.7576 69.7139 75.6923 69.7323C75.7341 69.7189 75.7643 69.7089 75.7827 69.7022C75.8112 69.6922 75.8329 69.6872 75.8497 69.6888ZM54.9011 21.6565C54.8659 21.6548 54.8324 21.6515 54.8006 21.6498C54.8642 21.6532 54.9346 21.6582 55.0065 21.6632C55.0501 21.6665 55.0919 21.6682 55.1355 21.6715C55.0568 21.6682 54.9781 21.6632 54.9011 21.6565ZM91.4561 74.1198L91.4544 74.1215C91.446 74.1566 91.4309 74.1934 91.4092 74.2302C91.4259 74.1917 91.441 74.1549 91.4561 74.1198ZM66.148 75.6609C66.1296 75.6994 66.1162 75.7278 66.1028 75.7478C66.1179 75.7177 66.1329 75.6893 66.148 75.6609ZM75.6605 70.1234C75.709 70.0549 75.7526 69.9914 75.7894 69.9329C75.7559 69.9847 75.7157 70.0465 75.6655 70.1151C75.6638 70.1184 75.6622 70.1217 75.6605 70.1234Z" fill="#A0A09F"/>
</svg>
