<svg width="72" height="72" viewBox="0 0 72 72" fill="none" xmlns="http://www.w3.org/2000/svg">
<circle cx="36" cy="36" r="36" fill="white"/>
<path d="M24.7312 54.7242C24.5312 54.7819 24.3074 54.8239 24.2346 54.8168C24.1617 54.8097 23.8333 54.7862 23.5043 54.7641C22.9858 54.7292 22.8759 54.6985 22.6786 54.5318C22.4866 54.3701 22.4687 54.3323 22.5647 54.2931C22.7746 54.2062 22.6813 54.1393 22.288 54.0951C21.7682 54.0367 21.5696 53.9333 21.5696 53.7217C21.5696 53.4959 21.6431 53.4745 23.7711 53.0805C24.7543 52.8988 25.5727 52.7357 25.5899 52.7179C25.6071 52.7001 25.5833 52.6609 25.537 52.6302C25.4059 52.5426 25.5734 52.4308 26.0236 52.3046C26.4831 52.1757 26.8062 52.165 26.9929 52.2726C27.1439 52.3588 27.4723 52.2982 27.4127 52.1949C27.3677 52.1166 27.4293 52.1016 28.439 51.9456C28.8581 51.8814 29.558 51.7667 29.995 51.6912C30.432 51.6164 31.2212 51.5074 31.7496 51.449C32.2779 51.3913 33.2459 51.2787 33.9014 51.2003C34.5569 51.1212 35.5839 51.0087 36.1837 50.9495C36.7836 50.8911 37.9013 50.7636 38.6667 50.666C39.4327 50.5691 40.506 50.4551 41.0523 50.4131C42.0779 50.3347 43.1134 50.225 43.4028 50.1644C43.4941 50.1452 44.0569 50.0803 44.6535 50.0205C45.2507 49.9599 45.7698 49.8908 45.8076 49.8652C45.8453 49.8402 46.2505 49.8132 46.708 49.8046C48.0799 49.7797 50.3675 49.6072 51.4143 49.4505L51.6461 49.4156L51.4143 49.5503C51.2872 49.6251 51.0561 49.7262 50.9012 49.7761C50.7463 49.826 50.6198 49.8958 50.6198 49.9314C50.6198 49.967 50.6721 49.9784 50.7357 49.9564C50.9972 49.868 51.5838 49.7725 51.8705 49.7718C52.038 49.7711 52.5333 49.692 52.9703 49.5951C53.7741 49.417 54.3276 49.3679 54.3276 49.4747C54.3276 49.5061 54.2018 49.6087 54.0476 49.702C53.835 49.8303 53.6371 49.8787 53.2199 49.9022C52.5883 49.9378 52.4757 50.0575 53.0743 50.0575C53.2947 50.0575 53.5331 50.0903 53.6033 50.1309C53.6927 50.1822 54.2859 50.1701 55.5691 50.091C56.5795 50.0283 57.57 49.987 57.7706 49.9991L58.1348 50.0219L57.5389 50.1794C57.2111 50.2656 56.7496 50.3582 56.5126 50.3846C56.0379 50.4366 55.6909 50.5434 55.969 50.552C56.2206 50.5591 57.3528 50.4188 58.2851 50.2641C58.7678 50.1844 59.2147 50.1323 59.2783 50.1487C59.5385 50.2164 58.6446 50.5057 57.1416 50.8405C56.9231 50.889 56.6013 50.9766 56.4265 51.0343C56.2014 51.1091 55.7565 51.1433 54.9037 51.1512C53.9098 51.1597 53.6635 51.1832 53.5 51.2815C53.2583 51.4276 52.3943 51.6285 50.984 51.8658C49.7001 52.0816 47.1901 52.2512 47.0033 52.1344C46.8954 52.0674 46.91 52.056 47.1106 52.0496C47.2377 52.0453 47.4019 52.0147 47.4748 51.9812C47.5886 51.9285 47.5794 51.9192 47.4085 51.9156C47.049 51.9071 46.3531 52.0589 46.2386 52.17C46.1658 52.2412 46.0751 52.2612 45.9771 52.2277C45.8321 52.1785 45.8314 52.1743 45.9545 52.0774C46.0241 52.0225 46.2902 51.9099 46.5458 51.8266C47.0742 51.6556 47.0212 51.5694 46.4584 51.6862C46.0082 51.7788 45.1944 51.8886 44.2966 51.9769C43.9325 52.0125 43.5041 52.0923 43.3445 52.1543C43.1657 52.2234 42.8367 52.2662 42.4837 52.2662C41.6793 52.2662 40.2789 52.4543 39.9942 52.6003C39.7962 52.7022 39.7313 52.7079 39.6214 52.6338C39.5135 52.5618 39.3592 52.5654 38.8137 52.653C36.9743 52.9473 36.5684 53.005 35.9871 53.0527C35.6408 53.0812 34.9112 53.1411 34.3649 53.186C33.8187 53.2301 33.0586 53.3156 32.6765 53.3741C32.2945 53.4332 31.539 53.5287 30.9987 53.5871C30.4584 53.6455 29.7215 53.7403 29.3607 53.7987C28.9998 53.8571 28.5628 53.9077 28.39 53.912C28.2165 53.9155 28.0007 53.9426 27.9093 53.9704L27.7438 54.0224L27.8928 54.0751C28.0669 54.1371 28.0854 54.2276 27.9371 54.2889C27.7557 54.3637 27.573 54.3366 27.4624 54.2183C27.3803 54.1293 27.2558 54.11 26.9082 54.1314C26.4818 54.1571 26.2567 54.2433 26.4368 54.3124C26.6056 54.3772 26.4361 54.4748 26.1547 54.4748C25.9951 54.4748 25.8462 54.5069 25.8236 54.5461C25.8011 54.5853 25.6283 54.618 25.439 54.618C25.2503 54.6187 24.9311 54.6665 24.7312 54.7242ZM41.8415 49.0879C41.6912 49.1498 41.678 49.147 41.3568 48.976C41.1966 48.8905 41.0178 48.7309 40.9596 48.6212C40.8384 48.3925 40.7947 48.3975 40.2114 48.7124L39.834 48.9162L39.7347 48.7637C39.5777 48.5229 39.7479 48.26 40.2604 47.9515L40.6941 47.6907L40.6815 47.1464C40.6749 46.8472 40.6914 46.3855 40.7192 46.1212C40.7788 45.554 40.7424 45.5319 40.212 45.8184C39.7949 46.0442 39.7075 46.0421 39.6241 45.8041C39.5228 45.5191 39.7068 45.2997 40.3272 44.9634C40.6166 44.8067 40.8728 44.6499 40.896 44.615C40.947 44.5402 41.0337 43.9937 41.0006 43.9581C40.988 43.9446 40.8159 43.9211 40.6179 43.9054C40.1703 43.8712 40.0485 43.817 40.0035 43.6325C39.9273 43.3176 40.0617 43.1694 40.6345 42.9386C41.3469 42.6507 41.3674 42.6365 41.425 42.4049C41.4667 42.2382 41.4575 42.2161 41.3628 42.2596C41.3012 42.2874 41.0483 42.3707 40.8013 42.4448C40.5544 42.5182 40.3008 42.608 40.2385 42.6429C40.1763 42.6778 39.8273 42.8103 39.4632 42.9364C38.6269 43.2271 38.4581 43.3197 38.3985 43.5199C38.3522 43.676 38.3495 43.6767 38.2939 43.5385C38.2462 43.4202 38.2403 43.4287 38.2608 43.5898C38.274 43.6966 38.2628 43.7686 38.2356 43.7508C38.1688 43.7059 38.0966 44.035 38.1443 44.169C38.1654 44.2281 38.1217 44.4241 38.0476 44.6043C37.9734 44.7846 37.9291 44.9776 37.9489 45.0339C37.9688 45.0895 37.9377 45.3595 37.8801 45.6331C37.7695 46.1568 37.7377 46.7994 37.8364 46.5308C37.8774 46.4175 37.9039 46.4674 37.9642 46.7681C38.0065 46.9775 38.0251 47.1749 38.0065 47.207C37.9562 47.2953 38.2277 47.9358 38.2965 47.8902C38.329 47.8681 38.4799 47.9964 38.6329 48.1745C38.8633 48.4438 38.8964 48.5165 38.8276 48.6055C38.7666 48.6846 38.6759 48.7003 38.4753 48.6639C38.0542 48.5891 37.982 48.5186 37.7304 47.9337C37.2339 46.7788 37.1822 46.3841 37.31 44.7176C37.3444 44.2687 37.3623 43.8897 37.3491 43.8762C37.3358 43.8619 37.0246 44.0123 36.6571 44.211C36.2903 44.4091 35.9341 44.5715 35.8659 44.5715C35.7143 44.5715 35.5547 44.3827 35.5011 44.1398C35.4627 43.9645 35.5057 43.9346 36.6214 43.3618C37.4795 42.9208 37.8192 42.7099 37.9238 42.551C38.0198 42.4064 38.035 42.3494 37.9701 42.375C37.9172 42.3957 37.606 42.4997 37.2782 42.6051C36.9505 42.7113 36.6141 42.8274 36.5313 42.8645C36.4486 42.9015 36.0652 43.0454 35.6799 43.1837C34.7569 43.5164 34.6046 43.6083 34.4914 43.8997C34.4391 44.0336 34.3709 44.1441 34.3398 44.1441C34.3093 44.1441 34.2835 44.2716 34.2835 44.4269C34.2835 44.5822 34.2345 44.7903 34.1742 44.8893C34.114 44.9883 34.0683 45.1572 34.0729 45.2655C34.0776 45.3738 34.0603 45.735 34.0345 46.0677C34.0047 46.456 34.0153 46.788 34.0643 46.9939C34.106 47.1699 34.1497 47.4278 34.1603 47.5667C34.1716 47.705 34.2312 47.913 34.2934 48.0298C34.3556 48.146 34.3894 48.1766 34.3689 48.0982C34.3371 47.9778 34.353 47.9835 34.4689 48.1339C34.545 48.2322 34.6953 48.421 34.8039 48.5549C34.9721 48.7616 34.988 48.8121 34.9098 48.8962C34.792 49.023 34.3 48.9162 34.1279 48.7266C33.9696 48.5535 33.5631 47.5418 33.4353 47.0046C33.3479 46.637 33.3433 46.419 33.4055 45.5191C33.4452 44.9392 33.4942 44.3927 33.5148 44.3044C33.5353 44.216 33.5359 44.1441 33.5167 44.1441C33.4975 44.1441 33.1685 44.3079 32.7844 44.5088C32.023 44.9078 31.8297 44.9249 31.6946 44.6057C31.6522 44.5046 31.6171 44.3806 31.6171 44.33C31.6171 44.2787 32.1462 43.9624 32.7924 43.6268C33.9047 43.0483 33.9776 42.9977 34.1484 42.6892C34.2954 42.4227 34.3629 42.3629 34.5185 42.3629C34.6231 42.3629 34.7781 42.4277 34.8628 42.5061C34.9469 42.5852 35.0634 42.6358 35.121 42.618C36.1122 42.318 38.2648 41.7929 38.5031 41.7929C38.5508 41.7929 38.5713 41.8492 38.5521 41.9283C38.5296 42.0202 38.5806 42.1128 38.711 42.2161L38.903 42.3693L39.6135 42.1584C40.367 41.9347 42.1699 41.5079 42.3619 41.5079C42.5202 41.5079 42.5043 41.6262 42.3195 41.825C42.1884 41.966 42.0256 42.4341 42.1077 42.4341C42.1222 42.4341 42.6718 42.3059 43.3286 42.1491C43.9854 41.9924 44.5687 41.8642 44.625 41.8642C44.7614 41.8642 44.7654 42.3828 44.629 42.504C44.5754 42.5517 43.957 42.7498 43.2551 42.9428C41.9905 43.2912 41.8137 43.3782 41.8137 43.651C41.8137 43.7978 42.0236 43.8341 43.2591 43.9011C44.2125 43.9531 44.2847 43.988 44.139 44.3314C44.0854 44.4575 44.0285 44.4974 43.943 44.4682C43.8682 44.4426 43.7755 44.4832 43.6981 44.5744C43.616 44.672 43.5253 44.709 43.4306 44.6834C43.3511 44.662 43.0518 44.7354 42.7651 44.8465C42.4785 44.9577 42.0891 45.0881 41.8998 45.1372C41.5621 45.2234 41.5541 45.2313 41.5124 45.5305C41.4893 45.6979 41.4654 46.1838 41.4601 46.6106C41.4508 47.2625 41.4654 47.3836 41.5488 47.373C41.6038 47.3651 41.9461 47.2647 42.3103 47.1478C43.2002 46.8635 44.5535 46.5522 44.7773 46.5793C44.921 46.5971 44.9634 46.6441 44.9799 46.8023C45.0051 47.036 44.9144 47.1777 44.7084 47.2276C44.1218 47.3708 42.7969 47.7513 42.2606 47.9301L41.6151 48.1453V48.3868C41.6151 48.567 41.6574 48.6597 41.7806 48.7459C41.9693 48.8791 41.9951 49.0245 41.8415 49.0879ZM36.6009 25.2708C36.2645 25.4261 36.2533 25.4276 36.1202 25.3371C36.0659 25.3 35.9513 25.2886 35.8659 25.3114C35.7805 25.3349 35.5978 25.3136 35.46 25.2644C35.2647 25.1953 35.1568 25.1939 34.9721 25.2594C34.6893 25.3599 34.4642 25.2651 34.4642 25.0443C34.4642 24.9203 34.4258 24.9032 34.1789 24.9167C33.7981 24.9381 33.6909 24.8654 33.8412 24.6866C33.9511 24.5562 33.9471 24.5512 33.7438 24.5512C33.4572 24.5512 33.0135 24.3503 33.1301 24.2726C33.1989 24.2271 33.1936 24.205 33.1069 24.1693C33.0466 24.1444 32.9321 24.123 32.8533 24.1223C32.7745 24.1223 32.6666 24.0924 32.6136 24.0561C32.5348 24.0026 32.5461 23.9656 32.6798 23.8459L32.8421 23.7013L32.4997 23.6984C31.9687 23.6948 31.8952 23.6364 32.1846 23.4483L32.4289 23.2894L31.7582 23.3244C31.3894 23.3436 31.0875 23.3308 31.0881 23.2959C31.0881 23.2617 31.2099 23.1584 31.3583 23.0672C31.5072 22.976 31.6165 22.8876 31.6013 22.8712C31.586 22.8548 31.3986 22.8762 31.1854 22.919C30.7637 23.003 30.3545 22.961 30.0943 22.8078L29.9288 22.7102L30.1274 22.6625C30.43 22.5898 30.9107 22.4195 31.0166 22.3476C31.0742 22.3077 30.9093 22.2977 30.5862 22.3219C30.1353 22.3547 30.0168 22.3383 29.75 22.2029C29.2368 21.9429 29.2256 21.8538 29.7116 21.8951C29.9585 21.9165 30.2486 21.893 30.4253 21.8382L30.7233 21.7448L30.3154 21.6992C29.8129 21.6422 29.2468 21.3544 28.9693 21.0138C28.7283 20.7189 28.7462 20.6562 29.0415 20.7666C29.3772 20.8927 29.4884 20.8535 29.2229 20.7025C28.9501 20.5472 28.7204 20.265 28.6615 20.0121C28.6052 19.7706 28.6654 19.7435 28.8806 19.9124C29.3991 20.3192 30.4452 20.3648 32.0806 20.0513C32.6904 19.9337 33.1784 19.891 33.9345 19.8881C35.1859 19.8839 35.2005 19.8903 36.3844 20.9241C36.8399 21.3216 37.3418 21.7427 37.5007 21.8609C37.7788 22.0676 37.7874 22.0854 37.747 22.3611C37.7119 22.5934 37.1352 24.4928 36.9445 25.0036C36.9174 25.0756 36.7624 25.196 36.6009 25.2708ZM53.0034 48.6305C52.5737 48.7651 52.0586 48.8321 51.7454 48.795C50.7191 48.6718 49.7359 48.1424 49.0777 47.358C48.5639 46.7453 47.6621 45.3211 47.4589 44.8002C47.3946 44.6364 47.3258 44.5017 47.3053 44.501C47.2854 44.5003 47.1881 44.989 47.0887 45.5868C46.8802 46.8529 46.8511 47.866 47.0172 48.121C47.1 48.2493 47.1053 48.3041 47.0417 48.3861C46.9272 48.535 46.8358 48.5165 46.5941 48.2942C46.0499 47.794 46.1638 45.9908 46.8828 43.7095C47.2841 42.4363 47.3827 42.2204 47.5655 42.2204C47.6926 42.2204 47.9051 42.4299 47.9051 42.5545C47.9051 42.5952 47.786 42.9699 47.6403 43.3874C47.4946 43.8042 47.3754 44.1775 47.3754 44.216C47.3754 44.2552 47.4311 44.2865 47.4999 44.2865C47.5681 44.2865 47.6648 44.34 47.7151 44.4055C47.8932 44.6385 48.3249 44.9278 48.4944 44.9271C49.2664 44.9256 49.9199 44.0935 49.9213 43.111C49.9219 42.5873 49.7769 42.2945 49.3744 42.0074C48.9327 41.6917 48.3878 41.654 47.6866 41.8891C47.0768 42.0936 46.426 42.5125 46.2042 42.8424C46.0433 43.0825 46.0611 43.2998 46.2604 43.5142C46.5008 43.7729 46.3591 43.993 46.0121 43.8997C45.7268 43.822 45.5215 43.5456 45.5228 43.2392C45.5268 42.5396 46.1015 41.8321 47.0212 41.3954C47.5754 41.1317 47.6436 41.1168 48.2693 41.1168C49.0757 41.1175 49.4704 41.2778 49.9113 41.7851C50.3245 42.2603 50.445 42.6465 50.4079 43.3767C50.3728 44.0536 50.1755 44.5623 49.769 45.0225C49.4048 45.435 49.0771 45.5925 48.7096 45.5334L48.407 45.4842L48.7089 45.8654C49.3174 46.6334 50.4986 47.5482 51.1309 47.7413C51.276 47.7855 51.2766 47.7812 51.1806 47.5347C51.127 47.3965 51.0833 47.182 51.0833 47.0588C51.0833 46.7595 51.3971 46.0178 51.5408 45.9772C51.6037 45.9601 51.7659 45.7998 51.901 45.6224L52.1466 45.2997L51.9116 44.8109C51.6626 44.2937 51.4839 43.5399 51.4819 42.9991C51.4779 41.887 52.2261 41.0128 53.2822 40.8966C53.741 40.846 53.9794 40.9266 54.2217 41.2151C54.3276 41.3405 54.3402 41.431 54.3038 41.8029C54.2561 42.2938 54.029 43.029 53.8853 43.1573C53.8125 43.2221 53.7403 43.215 53.5609 43.1224C53.4344 43.0575 53.3153 42.9614 53.2967 42.9094C53.2775 42.8566 53.3828 42.546 53.5305 42.2183C53.6774 41.8905 53.7979 41.5642 53.7979 41.4937C53.7979 41.1667 53.0709 41.4944 52.6783 41.9988C52.3062 42.4769 52.189 42.8923 52.244 43.5385C52.2857 44.0244 52.5379 44.7853 52.6578 44.7853C52.6902 44.7853 52.963 44.5772 53.263 44.3222C53.8436 43.8299 53.8681 43.8185 54.0674 43.9332C54.3349 44.0871 54.2164 44.3001 53.5602 44.8451C53.214 45.133 52.9412 45.3895 52.9537 45.4151C53.1418 45.7906 53.3994 46.4489 53.4331 46.6427C53.4603 46.7987 53.4378 47.0103 53.3729 47.2098C53.3166 47.3851 53.2696 47.5532 53.2689 47.5831C53.2676 47.6914 53.9026 47.2853 54.1257 47.036C54.3945 46.7346 54.5488 46.7139 54.6984 46.959C54.7878 47.1065 54.7931 47.1728 54.7282 47.3409C54.5547 47.7919 53.7423 48.3996 53.0034 48.6305ZM24.1022 50.7821C23.5182 50.9837 23.5149 50.9845 23.4069 50.9146C23.352 50.879 23.2255 50.8313 23.1255 50.8085C22.9613 50.7714 22.9435 50.7372 22.9435 50.4636C22.9435 50.002 23.0606 49.0508 23.2388 48.0626C23.3275 47.5724 23.495 46.5308 23.6115 45.7471C23.7281 44.9634 23.8598 44.2794 23.9048 44.2267C23.973 44.1469 24.0194 44.1498 24.1849 44.2417C24.2948 44.3029 24.4028 44.4041 24.4253 44.4675C24.4921 44.6556 24.4723 45.1415 24.3968 45.1415C24.3538 45.1415 24.3445 45.2363 24.373 45.3987C24.4008 45.5583 24.3902 45.6737 24.3458 45.7036C24.3061 45.73 24.2266 46.087 24.169 46.4973C24.1114 46.9077 24.0201 47.5496 23.9651 47.9244C23.9095 48.2984 23.8837 48.6675 23.9068 48.7437C23.9413 48.8563 23.936 48.862 23.8777 48.7751C23.8188 48.6867 23.8042 48.6996 23.7949 48.8463C23.7883 48.9447 23.7876 49.0807 23.7929 49.1491C23.7982 49.2175 23.7711 49.2738 23.7327 49.2738C23.693 49.2738 23.681 49.3351 23.7049 49.4163C23.7287 49.4982 23.7168 49.5588 23.6764 49.5588C23.6374 49.5588 23.6056 49.6756 23.6056 49.8181V50.0775L23.9452 50.034C24.1326 50.0105 24.606 49.9058 24.998 49.801C25.578 49.6472 25.7237 49.5823 25.7786 49.4519C25.8157 49.3643 26.0375 49.1776 26.2712 49.0366L26.697 48.7808L26.7387 47.7313C26.7619 47.1542 26.7731 46.6733 26.7632 46.6626C26.7533 46.6519 26.546 46.7431 26.3024 46.8643C25.9369 47.0474 25.8428 47.0702 25.7594 46.9953C25.6277 46.8778 25.6303 46.6405 25.766 46.4318C25.8256 46.3406 26.1203 46.1404 26.4209 45.9879L26.9678 45.7093L27.0128 45.383C27.038 45.2042 27.0472 45.0446 27.0327 45.0297C27.0188 45.0147 26.84 44.9912 26.6354 44.9776C26.2077 44.9506 26.0547 44.8451 26.0567 44.5808C26.058 44.2915 26.1176 44.2395 26.7195 43.9959C27.028 43.8712 27.3154 43.7337 27.3578 43.6895C27.4001 43.6453 27.4776 43.4508 27.5293 43.257C27.6478 42.8139 27.7603 42.7284 28.0033 42.9001C28.1556 43.007 28.1814 43.0689 28.1596 43.2699C28.1364 43.4836 28.1497 43.5071 28.2695 43.4772C28.3443 43.458 28.9217 43.3212 29.552 43.1723C30.7769 42.8844 30.8193 42.8873 30.8213 43.2577C30.8239 43.5691 30.6809 43.6411 29.3328 44.0066C28.6045 44.2046 27.9881 44.3884 27.9636 44.4155C27.9391 44.4426 27.8994 44.5487 27.8762 44.6506C27.8351 44.828 27.8477 44.8387 28.153 44.8793C28.3284 44.9021 28.8528 44.9434 29.3183 44.9698C29.7831 44.9969 30.1804 45.0468 30.2002 45.0817C30.2201 45.1166 30.2188 45.2327 30.1969 45.3403C30.1545 45.5462 29.9049 45.6844 29.4322 45.7614C29.305 45.7827 29.1706 45.8241 29.1342 45.8547C29.0978 45.8846 28.7356 45.9972 28.3291 46.1048L27.5908 46.3L27.5544 46.5935C27.4538 47.4072 27.4326 48.2806 27.5114 48.3825C27.5564 48.4409 27.62 48.4709 27.6524 48.4495C27.8828 48.2963 30.4518 47.6351 30.8166 47.6351C31.1795 47.6351 31.102 48.1766 30.7233 48.2906C30.614 48.3234 30.1221 48.4637 29.6308 48.602C29.1395 48.7402 28.4913 48.934 28.1907 49.0323C27.6656 49.204 27.6445 49.2197 27.6445 49.4241C27.6445 49.5595 27.7047 49.697 27.81 49.8018C28.0007 49.992 28.0186 50.096 27.8716 50.1566C27.7292 50.215 27.132 49.9293 27.0108 49.7448C26.9453 49.6443 26.8963 49.6208 26.8645 49.6742C26.7996 49.7832 26.3136 50.0575 26.1852 50.0575C26.1282 50.0575 26.0534 50.0846 26.019 50.1181C25.9845 50.1516 25.6283 50.2841 25.2277 50.4116C24.8272 50.5399 24.3207 50.7066 24.1022 50.7821ZM37.357 28.7484C37.2703 28.8417 37.1133 28.8467 36.9862 28.7605C36.9352 28.7256 36.8558 28.712 36.8101 28.7306C36.7611 28.7512 36.6929 28.6629 36.6432 28.514C36.589 28.3522 36.5095 28.2553 36.4221 28.2418C36.3069 28.224 36.2884 28.177 36.3042 27.9533C36.3221 27.7146 36.3076 27.6861 36.1685 27.6861C35.9063 27.6861 35.8335 27.5414 35.999 27.3519L36.1427 27.1873H36.0043C35.9282 27.1873 35.8189 27.1681 35.7613 27.1446C35.6706 27.1068 35.6752 27.0769 35.7944 26.913L35.9321 26.725L35.7216 26.6786C35.3382 26.5946 35.3726 26.5091 35.8706 26.3039C36.4956 26.0453 36.7757 25.8465 36.9968 25.5031C37.2411 25.124 37.8748 23.1363 38.0727 22.1288C38.3833 20.5486 38.9898 19.6352 39.7287 19.6352C39.9684 19.6352 40.0425 19.673 40.2114 19.8789C40.3206 20.0135 40.51 20.1788 40.6318 20.2472L40.8536 20.3712L40.6543 20.4595C40.1538 20.6811 40.0684 21.1756 40.3464 22.2357C40.5318 22.9418 40.5497 23.6777 40.3941 24.1822C40.1736 24.8953 39.5473 25.5537 38.8567 25.7966L38.5236 25.9142L38.5548 26.2676C38.5826 26.5768 38.5581 26.6708 38.3555 27.0285C38.0681 27.5372 37.9734 27.835 37.9734 28.2311C37.9734 28.6265 37.7808 28.8723 37.5676 28.7498C37.4676 28.6921 37.4093 28.6921 37.357 28.7484ZM52.0705 16.7034C51.3567 17.1131 50.9442 17.2028 50.3881 17.0703C50.2424 17.0354 50.016 17.0055 49.8849 17.0034C49.673 16.9998 49.6035 16.9442 49.2711 16.5189C48.7573 15.8606 48.6659 15.463 48.8645 14.7427C48.9605 14.3964 48.9956 14.3601 49.8657 13.6918L50.7674 13L50.9111 13.1453L51.0548 13.29L51.2753 13.1461C51.3965 13.0663 51.5031 13.0114 51.5123 13.0235C51.5216 13.0349 51.566 13.1211 51.611 13.2145C51.6871 13.3712 51.7189 13.3797 52.0639 13.3363C52.2678 13.3106 52.5068 13.27 52.5942 13.2465C52.7419 13.2066 52.7498 13.2187 52.7094 13.4182C52.6618 13.6505 52.7929 13.8642 52.9822 13.8642C53.0577 13.8642 53.0729 13.9105 53.0425 14.0423C53.0087 14.1863 53.0253 14.2205 53.1292 14.2205C53.1994 14.2205 53.3033 14.2397 53.3596 14.2625C53.4477 14.2988 53.443 14.3323 53.3252 14.504C53.1537 14.7534 53.206 14.9657 53.4762 15.116L53.6748 15.2265L53.2451 15.5763C52.9544 15.8128 52.8034 15.9895 52.7756 16.1242C52.7425 16.2873 52.6194 16.3885 52.0705 16.7034ZM50.7224 36.1317C50.5443 36.3233 50.5245 36.3283 50.3053 36.2335C50.1298 36.1573 50.1265 36.1302 50.2517 35.7498C50.3629 35.4106 50.4463 34.4666 50.588 31.9609C50.7065 29.857 50.882 27.1225 50.9171 26.8247C50.9416 26.6167 50.9674 25.994 50.9568 25.8764C50.9535 25.8408 50.8985 25.86 50.835 25.9184C50.7714 25.9776 50.4066 26.2091 50.0239 26.4343C49.2307 26.9009 48.7228 27.2109 48.5719 27.322C47.8542 27.8499 47.1291 28.256 46.9047 28.256C46.6193 28.256 46.4359 28.0494 46.4862 27.783C46.5253 27.5756 46.5935 27.5272 47.4317 27.1154C47.929 26.8717 48.9347 26.368 49.667 25.9961L50.9985 25.3193L51.0436 24.7749C51.176 23.1655 51.227 22.9731 51.5772 22.7715C51.7149 22.6924 51.7639 22.6952 51.903 22.7936C52.146 22.9646 52.146 23.0878 51.9103 24.5334C51.85 24.901 51.9103 24.9167 52.4227 24.6652C52.6147 24.5705 53.0253 24.3767 53.3345 24.2335C53.8992 23.9727 54.1561 23.8509 54.7434 23.5652C55.0824 23.4006 55.2592 23.3635 55.1506 23.4804C55.1149 23.5189 54.4905 23.8665 53.7635 24.2534C53.0358 24.6403 52.328 25.04 52.1903 25.1411C52.0526 25.2423 51.9083 25.3356 51.8699 25.3499C51.8321 25.3634 51.7772 25.5658 51.7487 25.8002C51.7209 26.0339 51.605 26.819 51.4918 27.5436C51.3786 28.2682 51.2097 29.4865 51.117 30.251C51.0244 31.0154 50.9012 31.9609 50.8443 32.3527C50.7867 32.7446 50.7238 33.5839 50.7039 34.218C50.6734 35.1848 50.6853 35.4171 50.7767 35.6636C50.884 35.9521 50.8833 35.9585 50.7224 36.1317ZM46.4213 33.1307C46.3816 33.3231 46.3174 33.492 46.2796 33.5055C46.2419 33.519 45.9492 33.2761 45.6288 32.9662C45.3083 32.6555 44.8674 32.2993 44.6495 32.1739C43.8755 31.73 43.6014 31.3574 43.6014 30.7483C43.6014 30.3329 43.665 30.169 43.9543 29.8399C44.3449 29.396 44.866 29.4003 45.2514 29.8498C45.3401 29.9531 45.4295 30.0372 45.4507 30.0372C45.4719 30.0372 45.5301 29.9375 45.5805 29.8164C45.6924 29.5435 46.1565 29.2165 46.5213 29.1538C47.053 29.0626 47.5019 29.4658 47.5569 30.0857C47.5986 30.5502 47.494 30.925 47.1761 31.4543C46.7895 32.0984 46.5048 32.7303 46.4213 33.1307ZM40.5722 40.0652C40.4332 40.1799 40.3908 40.177 40.2915 40.0481C40.173 39.8942 40.2888 39.3691 41.0602 36.5613C41.1887 36.0939 41.4528 35.1164 41.6475 34.3883C42.4295 31.47 43.5491 27.6383 44.0655 26.1186C44.1788 25.7859 44.3171 25.377 44.3728 25.211C44.4714 24.916 44.7925 24.5491 44.9475 24.5534C45.0567 24.5569 45.2242 24.708 45.2726 24.8462C45.3229 24.9922 45.1805 25.4895 44.6376 27.0627C43.5822 30.117 41.5992 36.4466 41.2165 37.9812C40.9397 39.0912 40.6609 39.9918 40.5722 40.0652ZM19.4462 39.7702C19.3978 39.8251 19.3217 39.8693 19.2773 39.8693C19.1721 39.8693 19.037 39.7232 19.037 39.6099C19.037 39.5152 20.4479 37.5687 21.4835 36.2357C21.8331 35.7847 22.3562 35.0957 22.6455 34.7039C22.9348 34.312 23.2023 33.9558 23.2394 33.9123C23.354 33.7791 23.6228 33.4414 23.9697 32.9947C24.1518 32.7603 24.5689 32.2345 24.8967 31.8255C25.2244 31.4173 25.6813 30.8395 25.9117 30.5424C26.4083 29.9011 27.8431 28.2069 28.2602 27.7694C28.637 27.374 29.021 27.2857 29.1587 27.5621C29.3057 27.8571 29.2653 27.9162 27.757 29.6347C26.4758 31.0931 25.3238 32.4425 24.4332 33.5269C24.2875 33.7036 24.1531 33.8653 24.1353 33.8845C24.1174 33.9038 23.879 34.193 23.6062 34.5258C23.3341 34.8585 23.0931 35.1477 23.0719 35.167C23.0507 35.1862 22.8567 35.4292 22.6409 35.7063C22.425 35.9828 21.8761 36.676 21.4206 37.2452C20.9651 37.8152 20.3546 38.5939 20.0633 38.9765C19.7719 39.3591 19.4945 39.7161 19.4462 39.7702ZM61.3513 19.3502C61.3182 19.3502 61.2461 19.3687 61.1911 19.3915C61.1242 19.4193 61.0845 19.3809 61.0699 19.274C61.0468 19.1066 60.9918 19.0631 60.6177 18.9128C60.4906 18.8615 60.2072 18.6256 59.9887 18.3884C59.7166 18.0934 59.4319 17.874 59.0836 17.6923C58.787 17.5377 58.4983 17.3268 58.3884 17.1843C58.2454 16.9984 58.107 16.9143 57.8037 16.8302C57.286 16.6863 57.0423 16.4149 57.0423 15.9824C57.043 15.3861 57.425 15.0049 58.1679 14.8581C58.8187 14.7292 59.2365 14.8453 59.798 15.3112C60.2317 15.671 60.2542 15.6803 60.6422 15.6646C61.007 15.6497 61.0322 15.6575 60.9355 15.7615C60.8475 15.8563 60.8355 15.9966 60.8653 16.5972C60.8845 16.9948 60.9415 17.4073 60.9925 17.5149C61.0448 17.6268 61.2262 17.7878 61.4136 17.8904C61.638 18.0129 61.7433 18.1141 61.7433 18.2081C61.7433 18.4725 61.5831 18.7211 61.3162 18.8707L61.0481 19.0211L61.2302 19.0923C61.399 19.1586 61.4891 19.3502 61.3513 19.3502ZM29.0998 36.458C28.7012 36.8042 28.4668 36.8455 28.2609 36.6062C28.0702 36.3846 28.0894 36.2364 28.4079 35.5004C28.6469 34.9461 28.6178 34.8563 28.2483 35.0209C28.1497 35.0651 27.906 35.1078 27.7074 35.1164C27.3637 35.1314 27.3273 35.1527 26.9492 35.5503C26.4844 36.039 26.1322 36.3076 25.7396 36.4729C25.3178 36.6503 25.1463 36.6254 24.8887 36.3482C24.6802 36.1238 24.665 36.0789 24.7027 35.7961C24.7629 35.3437 25.0205 34.83 25.5224 34.1588C26.1819 33.2775 26.8685 32.7132 27.2267 32.7574C27.3353 32.771 27.42 32.8294 27.4326 32.8992C27.4544 33.0232 26.6672 34.0969 26.552 34.0997C26.4182 34.104 25.6614 35.286 25.5615 35.6479C25.525 35.7783 25.5429 35.8082 25.6541 35.8082C25.8654 35.8082 26.3209 35.5474 26.6453 35.2411L26.9373 34.9653L26.7612 34.7402C26.601 34.535 26.5222 34.2408 26.6275 34.2408C26.6513 34.2408 26.7705 34.3612 26.893 34.5079L27.1148 34.7751L27.3856 34.4545C27.5339 34.2778 27.7133 34.0057 27.7835 33.8489C27.8702 33.6551 27.902 33.6209 27.8822 33.742C27.8153 34.1432 27.718 34.468 27.6107 34.6433C27.4617 34.8891 27.5723 34.9732 27.9755 34.919C28.5158 34.8478 28.7694 34.7124 28.9283 34.4118C29.2243 33.8503 29.7679 33.0317 29.8917 32.9605C29.9619 32.9199 30.1102 32.8871 30.2214 32.8871C30.383 32.8871 30.4313 32.9234 30.4657 33.0716C30.52 33.3046 30.3426 33.7335 29.7526 34.7929C29.5076 35.2339 29.3289 35.5945 29.356 35.5945C29.3832 35.5945 29.5679 35.4413 29.7665 35.2532C30.6637 34.4053 32.1071 33.2747 32.3912 33.1977C32.6401 33.1307 32.6454 33.2198 32.4011 33.3552C31.9482 33.606 31.1775 34.2949 30.2995 35.2332C29.8023 35.7647 29.2627 36.3162 29.0998 36.458ZM45.6175 32.8094C46.1108 33.2903 46.2207 33.368 46.2704 33.2725C46.3028 33.2098 46.3121 33.0566 46.2902 32.9334C46.2657 32.7973 46.2724 32.746 46.3068 32.8037C46.3505 32.8764 46.3723 32.8636 46.4002 32.7503C46.42 32.6691 46.4094 32.6199 46.3763 32.642C46.2929 32.6976 46.3008 32.6377 46.416 32.3392C46.4717 32.1974 46.5352 32.1019 46.5584 32.1269C46.5988 32.1703 47.1027 31.398 47.2708 31.0347C47.3278 30.9121 47.3397 30.6905 47.3099 30.3222C47.2602 29.7152 47.2735 29.6325 47.3655 29.9759C47.4006 30.1078 47.4324 30.1576 47.4357 30.0871C47.4529 29.7109 47.0265 29.2535 46.659 29.2535C46.1744 29.2535 45.5891 29.7309 45.5877 30.1263C45.5877 30.2837 45.4984 30.2859 45.3805 30.132C45.1746 29.8634 44.7687 29.6097 44.5436 29.6097C44.047 29.6097 43.5623 30.4462 43.7232 31.0247C43.808 31.3289 44.0338 31.6759 44.1476 31.6759C44.1874 31.6759 44.1503 31.5961 44.0649 31.4978C43.9795 31.3995 43.9238 31.3197 43.9417 31.3197C43.9596 31.3197 44.0616 31.4208 44.1682 31.5441C44.2754 31.6681 44.3185 31.7421 44.2635 31.7087C44.1801 31.6581 44.1774 31.6666 44.2496 31.7621C44.2966 31.8248 44.4906 31.9559 44.68 32.0535C44.87 32.1518 45.2918 32.4917 45.6175 32.8094ZM34.4404 36.5135C34.1219 36.7494 34.0835 36.7572 33.7551 36.6553C32.95 36.4052 33.3837 34.9397 34.692 33.4898C35.3064 32.8094 35.858 32.5038 36.3513 32.5715C36.5466 32.5985 36.7432 32.6776 36.8313 32.7645C37.014 32.9455 37.0253 33.2497 36.8531 33.3659C36.7684 33.4229 36.7386 33.5005 36.7624 33.601C36.7896 33.71 36.7631 33.7606 36.6658 33.7876C36.5929 33.8083 36.4982 33.9073 36.4559 34.0078C36.4128 34.1083 36.3188 34.2735 36.2466 34.3761C36.1738 34.478 35.9096 34.8499 35.66 35.2026C35.178 35.8823 34.9231 36.1566 34.4404 36.5135ZM38.0045 21.3622C37.9728 21.5204 37.9562 21.6315 37.8986 21.6672C37.7781 21.742 37.4775 21.4791 36.481 20.6084C36.4393 20.5714 36.3956 20.5336 36.3513 20.4952C35.4369 19.6958 35.2296 19.6131 34.0345 19.5668C33.1903 19.534 33.0394 19.5112 33.0215 19.4129C33.0089 19.3417 33.0599 19.2804 33.1532 19.2533C33.3022 19.2106 33.3009 19.2063 33.0976 19.0716C32.7474 18.8401 32.7533 18.7631 33.1162 18.8173L33.438 18.865L33.0771 18.6271C32.8785 18.496 32.6567 18.2787 32.5845 18.1447L32.4527 17.9018L32.6143 17.9509C32.703 17.978 32.8652 18.0179 32.9745 18.04C33.1592 18.0778 33.1539 18.0678 32.891 17.8918C32.6375 17.7215 32.4117 17.4059 32.4117 17.2207C32.4117 17.1822 32.6573 17.289 32.9579 17.4586C33.283 17.6417 33.8889 17.8861 34.4536 18.0607C34.9754 18.2224 35.564 18.4368 35.7613 18.5366C36.2334 18.7774 36.7551 19.2996 37.1491 19.9259C37.3252 20.2052 37.5993 20.5899 37.7596 20.7816C38.0178 21.0908 38.0456 21.1556 38.0045 21.3622ZM48.6798 33.5753C48.4169 33.7264 47.8429 33.7698 47.6403 33.6544C47.5039 33.576 47.4734 33.5034 47.4675 33.244C47.4609 32.9462 47.4847 32.9028 47.8979 32.4625C48.1389 32.206 48.4904 31.8839 48.6798 31.7471C48.8692 31.6103 49.0162 31.4686 49.0069 31.4322C48.9976 31.3966 48.8427 31.3132 48.6626 31.247C48.07 31.0297 47.9694 30.9677 47.9038 30.7817C47.8025 30.4946 47.8244 30.3393 48.0342 29.8691C48.2547 29.3739 48.8162 28.7199 49.3432 28.343C49.765 28.0416 50.2623 27.9525 50.4424 28.1463C50.5033 28.2126 50.5536 28.2881 50.5536 28.3145C50.5523 28.4748 50.2444 28.8574 49.9835 29.0234C49.2671 29.4794 48.6997 30.085 48.6997 30.3942C48.6997 30.5117 49.3671 31.1059 49.4995 31.1059C49.5353 31.1059 49.6392 31.0532 49.7306 30.9891C49.9663 30.8231 49.9928 30.9079 49.7869 31.1715C49.6445 31.3524 49.6174 31.4451 49.6472 31.6431C49.6856 31.8953 49.6425 31.9495 49.5147 31.812C49.4743 31.7685 49.4015 31.745 49.3525 31.7585C49.2214 31.7942 48.1038 33.0851 48.1038 33.2006C48.1038 33.4186 48.7056 33.4464 49.0155 33.2433C49.2585 33.0837 49.2956 33.073 49.2956 33.1642C49.2956 33.1984 49.1989 33.2818 49.0804 33.348C48.9619 33.4143 48.7818 33.5169 48.6798 33.5753ZM33.812 40.5105C33.4267 40.8204 33.2777 40.8496 32.9745 40.6751C32.7129 40.5247 32.6785 40.4592 32.6778 40.1079C32.6765 39.7631 33.0135 39.0043 33.3876 38.512C33.6809 38.1259 35.0039 36.7216 35.0389 36.7593C35.0528 36.7743 34.9595 36.9218 34.831 37.0878C34.2226 37.8715 33.432 39.3762 33.4883 39.6448C33.5207 39.798 33.9292 39.3549 34.3106 38.755C34.7893 37.999 35.5508 36.4402 35.4667 36.3846C35.4163 36.3511 35.4594 36.2635 35.5958 36.1245C35.709 36.0091 35.8924 35.7149 36.0036 35.4698C36.2162 35.0045 36.3625 34.8613 36.2294 35.2496C36.1678 35.4292 36.1705 35.4805 36.2407 35.5068C36.3049 35.5303 36.2844 35.5909 36.1659 35.727C36.0639 35.8445 35.8745 36.3276 35.658 37.0194C35.0489 38.9658 34.5437 39.922 33.812 40.5105ZM18.4278 20.8991C18.3073 21.0559 18.0716 21.0039 17.9862 20.8029C17.9048 20.6099 17.9432 20.4987 18.163 20.2992C18.214 20.2529 18.2352 20.1788 18.21 20.1354C18.1769 20.0769 18.1392 20.0784 18.071 20.1389C17.9935 20.2087 17.9763 20.176 17.969 19.9466C17.9478 19.2932 17.9862 19.0296 18.1206 18.9056C18.3212 18.7211 18.7596 18.6093 18.8754 18.7126C18.9271 18.7589 19.0125 18.7781 19.0648 18.7567C19.1178 18.7346 19.1754 18.7553 19.1932 18.8023C19.2171 18.8643 19.2429 18.86 19.2906 18.7867C19.3462 18.7012 19.3879 18.7026 19.5773 18.7988C19.6991 18.8608 19.8785 18.9334 19.9765 18.9598C20.0871 18.989 20.1626 19.0631 20.1752 19.1543C20.1864 19.2355 20.2506 19.3103 20.3175 19.3203C20.4877 19.3467 20.5181 19.3951 20.4579 19.5433C20.4294 19.6131 20.4109 19.695 20.4168 19.7243C20.4228 19.7535 20.4023 19.7777 20.3718 19.7777C20.3413 19.7777 20.2758 19.9088 20.2268 20.0698C20.1394 20.3541 19.9772 20.4895 19.6825 20.5236C19.619 20.5315 19.5468 20.5593 19.5217 20.5856C19.4972 20.612 19.4078 20.5635 19.3224 20.4773C19.2091 20.3633 19.1482 20.342 19.0946 20.3997C19.0542 20.4431 18.9244 20.4617 18.8066 20.441C18.6132 20.4075 18.5867 20.4239 18.5444 20.607C18.5179 20.7182 18.4656 20.85 18.4278 20.8991ZM15.9641 29.4038C15.9237 29.4587 15.7648 29.5057 15.6059 29.5093C15.3596 29.515 15.2987 29.4851 15.1676 29.2955C14.7796 28.7341 14.7703 28.7021 14.8637 28.3038C14.9114 28.1014 15.0358 27.83 15.1398 27.7018C15.2437 27.5728 15.3291 27.4431 15.3291 27.4132C15.3291 27.3313 15.7887 27.3306 16.0939 27.4118C16.3197 27.4716 16.3806 27.5293 16.4839 27.7801C16.6163 28.1014 16.6825 28.7548 16.5819 28.7548C16.5488 28.7548 16.521 28.7854 16.521 28.8232C16.521 28.9678 16.2144 29.3689 16.127 29.3376C16.0767 29.3198 16.0038 29.3497 15.9641 29.4038ZM42.6248 21.6322C42.0878 22.3903 41.6111 23.023 41.5654 23.0387C41.5018 23.06 41.4826 22.8263 41.4826 22.0255C41.4826 21.1435 41.4985 20.9775 41.5872 20.9412C41.6442 20.9176 41.7177 20.8236 41.7495 20.7331C41.8084 20.5678 41.9335 20.5158 43.2538 20.1069C43.5809 20.0057 43.6014 20.0064 43.6014 20.1268C43.6014 20.1973 43.1618 20.8749 42.6248 21.6322ZM14.908 40.6352C14.9339 40.742 14.8888 40.7598 14.5955 40.7606C14.2896 40.7613 14.2261 40.7328 14.001 40.4984C13.7434 40.2291 13.6547 39.9184 13.7513 39.6199C13.7765 39.5415 13.8142 39.3919 13.8348 39.2879C13.8798 39.0606 14.4214 38.7008 14.6319 38.7585C14.7061 38.7785 14.8928 38.9181 15.0478 39.0692C15.3093 39.3242 15.3291 39.3698 15.3291 39.709C15.3291 39.9099 15.2974 40.0958 15.259 40.1215C15.2199 40.1471 15.1616 40.2454 15.1279 40.3395C15.0948 40.4335 15.0252 40.5105 14.9729 40.5105C14.9153 40.5105 14.8902 40.5596 14.908 40.6352ZM18.5735 33.1008C18.5735 33.2219 18.5311 33.2426 18.2921 33.2376C17.8776 33.2284 17.4479 32.9968 17.4479 32.7824C17.4479 32.689 17.3996 32.5601 17.34 32.4959C17.2513 32.4012 17.246 32.347 17.3075 32.2003C17.3493 32.1019 17.3665 31.9915 17.3453 31.9552C17.3241 31.9188 17.3539 31.8697 17.4108 31.8462C17.4678 31.8227 17.5141 31.7585 17.5141 31.7037C17.5141 31.6495 17.5591 31.6046 17.6134 31.6046C17.6677 31.6046 17.7128 31.579 17.7128 31.5484C17.7128 31.4636 18.2391 31.3282 18.2815 31.4016C18.3014 31.4358 18.4351 31.5284 18.5781 31.6068C18.7212 31.6859 18.8384 31.7977 18.8384 31.8554C18.8384 31.9131 18.8754 31.9616 18.9211 31.9623C18.984 31.963 18.9834 31.9773 18.9171 32.0221C18.8642 32.0585 18.8463 32.1475 18.8708 32.2537C18.9145 32.4411 18.7443 32.9583 18.6391 32.9583C18.6026 32.9583 18.5735 33.0225 18.5735 33.1008ZM15.5721 49.7462C15.4225 50.0333 15.0643 50.4886 15.0643 50.3917C15.0643 50.3276 14.969 50.2677 14.818 50.2371C14.6823 50.21 14.5081 50.1181 14.4313 50.0333C14.2559 49.8409 14.1195 49.4363 14.2102 49.3764C14.2459 49.3522 14.2592 49.2781 14.2393 49.2111C14.2155 49.1313 14.2929 48.9952 14.4638 48.815C14.6988 48.5685 14.7498 48.5457 14.9736 48.5849C15.11 48.6084 15.2828 48.6939 15.357 48.7737C15.5298 48.9596 15.6642 49.5688 15.5721 49.7462ZM31.1139 37.9777C30.9583 38.1451 30.7087 38.1137 30.5856 37.9114C30.4816 37.7404 30.4896 37.7162 30.8544 37.0742C31.1841 36.495 31.9356 35.3351 32.4971 34.5386C32.5991 34.3947 32.7745 34.1218 32.8864 33.933C33.0261 33.6986 33.1122 33.6124 33.1585 33.6622C33.2049 33.7121 32.995 34.1147 32.4964 34.9319C31.8005 36.0725 31.4708 36.7907 31.2874 37.568C31.2483 37.7333 31.1702 37.9178 31.1139 37.9777ZM34.1994 35.6664C34.1994 35.9201 34.5695 35.5945 35.905 34.1674L36.6366 33.3858H36.4075C36.0414 33.3858 35.5872 33.6565 35.1594 34.1303C34.8012 34.5272 34.1994 35.4897 34.1994 35.6664ZM51.6626 47.4884C51.9778 47.6907 52.8048 47.1215 52.8048 46.7018C52.8048 46.5287 52.5432 45.854 52.4764 45.854C52.4505 45.854 52.2307 46.0756 51.9877 46.3456C51.5918 46.7873 51.5468 46.8671 51.5468 47.1257C51.5468 47.3245 51.5825 47.4371 51.6626 47.4884ZM41.0112 21.0487C40.7331 21.2119 40.4875 21.3451 40.465 21.3451C40.3597 21.3451 40.4398 21.0359 40.5855 20.8785C40.7033 20.7516 40.8205 20.7039 41.0105 20.7039C41.4899 20.7039 41.5118 20.649 41.1688 20.3149L40.8576 20.0114L41.2595 19.4165C41.6429 18.8508 41.8369 18.6385 41.9044 18.7118C41.9355 18.746 41.5859 20.6918 41.5409 20.731C41.527 20.7424 41.2886 20.8856 41.0112 21.0487ZM62.5968 21.514C62.3769 21.6793 61.7976 21.6707 61.6539 21.4997C61.4235 21.2254 61.5765 20.6975 61.9294 20.5529C62.1373 20.4681 63.002 20.6134 63 20.7331C62.9967 20.9091 62.7404 21.4057 62.5968 21.514ZM42.691 20.1254C41.8647 20.3847 41.7925 20.3926 41.8382 20.223C41.8574 20.1546 41.9229 19.8176 41.9845 19.4749C42.0461 19.1322 42.1216 18.8515 42.152 18.8515C42.2308 18.8515 43.4028 19.787 43.4028 19.8497C43.4028 19.8782 43.0823 20.0021 42.691 20.1254ZM16.2217 57.0276C15.5781 57.3432 15.1126 56.5616 15.5642 55.924C15.7847 55.6126 16.0548 55.6012 16.3243 55.8912C16.4872 56.0665 16.5104 56.137 16.4806 56.3721C16.417 56.8815 16.3925 56.9435 16.2217 57.0276ZM41.3502 21.9863C41.3502 22.4566 41.3251 22.8413 41.2939 22.8413C41.2628 22.8413 41.1185 22.748 40.9721 22.6347C40.7695 22.4765 40.6894 22.3526 40.6325 22.1096C40.5914 21.9343 40.5398 21.7405 40.5179 21.6793C40.4888 21.5959 40.5815 21.5104 40.8794 21.3494C41.0999 21.2297 41.2959 21.1314 41.3151 21.1314C41.3343 21.1314 41.3502 21.5161 41.3502 21.9863ZM16.2098 38.3068C16.1164 38.4764 16.0502 38.5156 15.8549 38.5156C15.5556 38.5156 15.3848 38.3289 15.3762 37.9905C15.3616 37.434 15.9873 37.3364 16.219 37.8594C16.3164 38.0803 16.3157 38.1137 16.2098 38.3068ZM13.613 43.9631C13.5964 43.9724 13.5812 43.9809 13.5673 43.9887C13.4732 44.0415 13.4302 44.0657 13.3918 44.0586C13.3527 44.0521 13.319 44.0144 13.2435 43.9424C12.9813 43.6938 12.9436 43.5434 13.0819 43.2991C13.1839 43.1188 13.2521 43.0754 13.4329 43.0754C13.5567 43.0754 13.6871 43.1153 13.7229 43.1644C13.8162 43.2912 13.8652 43.6418 13.7964 43.6874C13.7639 43.7087 13.754 43.7551 13.7745 43.79C13.7944 43.8249 13.7215 43.9025 13.613 43.9631ZM62.4862 24.0803C62.2988 24.1822 62.1061 24.2662 62.0585 24.2662C61.8923 24.2662 61.6771 24.0447 61.6771 23.873C61.6771 23.5288 62.1459 23.4505 62.567 23.724L62.8272 23.8943L62.4862 24.0803ZM16.9156 22.4188C16.7944 22.6632 16.2806 22.5257 16.3561 22.2685C16.3799 22.188 16.3627 22.0747 16.3183 22.0163C16.2561 21.9365 16.2548 21.8681 16.3111 21.7348C16.411 21.499 16.4991 21.5126 16.7626 21.8047C16.9964 22.0633 17.0281 22.1922 16.9156 22.4188ZM61.8095 26.1186C61.7367 26.197 61.64 26.2604 61.5943 26.2604C61.5248 26.2597 60.966 25.9469 60.8918 25.8671C60.8369 25.808 61.3275 25.5494 61.495 25.5487C61.6731 25.5487 61.9419 25.7631 61.9419 25.9049C61.9419 25.9441 61.8823 26.0403 61.8095 26.1186ZM62.1916 19.923C62.2022 19.9807 62.1273 20.1318 62.0267 20.2586L61.8426 20.4887L61.6202 20.2892C61.3593 20.0548 61.3613 19.8689 61.6281 19.7086C61.791 19.611 61.8281 19.611 61.9909 19.7086C62.0909 19.7691 62.181 19.8653 62.1916 19.923ZM57.9481 30.4469C57.8276 30.5352 57.6971 30.6072 57.6581 30.6072C57.5813 30.6072 57.5084 30.3778 57.5064 30.1313C57.5058 29.9881 57.7812 29.681 57.911 29.681C57.962 29.681 58.1686 30.1327 58.1672 30.2417C58.1672 30.2666 58.0686 30.3585 57.9481 30.4469ZM57.6574 22.5763C57.6263 22.7494 57.6071 22.7565 57.1681 22.7494C56.7397 22.7423 56.5643 22.6553 56.8278 22.5813C56.892 22.5634 56.9953 22.4544 57.0569 22.339C57.2548 21.9664 57.7322 22.1552 57.6574 22.5763ZM54.0807 35.9685C53.88 36.2079 53.5331 36.0647 53.5331 35.7434C53.5331 35.6329 53.598 35.4541 53.6768 35.3458C53.8152 35.157 53.8244 35.1542 53.9158 35.2824C53.9681 35.3565 54.0495 35.5125 54.0979 35.6301C54.172 35.8132 54.1701 35.8616 54.0807 35.9685ZM18.3848 24.2434C18.2511 24.3524 18.1762 24.361 18.1762 24.2662C18.1762 24.2271 18.1166 24.195 18.0438 24.195C17.9418 24.195 17.9114 24.1473 17.9114 23.9862C17.9114 23.7205 18.0663 23.5538 18.3133 23.5538C18.4682 23.5538 18.5086 23.5865 18.5152 23.7141C18.5291 24.0126 18.4947 24.1537 18.3848 24.2434ZM53.1226 37.5751C53.0166 37.6891 52.9299 37.6827 52.7531 37.5495C52.5744 37.4148 52.5677 37.2994 52.7266 37.0885C52.8438 36.9325 52.8524 36.9318 53.0246 37.0536C53.2126 37.1861 53.2583 37.4291 53.1226 37.5751ZM21.1802 26.2961C21.1359 26.4193 20.977 26.4321 20.8075 26.3267C20.7439 26.2861 20.6651 26.2711 20.6333 26.2918C20.6009 26.3132 20.5387 26.2839 20.4936 26.2262C20.4274 26.1393 20.442 26.1094 20.579 26.0531C20.6711 26.0153 20.7651 25.9512 20.7889 25.9092C20.922 25.6783 21.2756 26.0282 21.1802 26.2961ZM22.4455 21.742C22.3601 22.0013 22.2754 22.022 22.0569 21.8374C21.7106 21.5446 22.0225 21.1613 22.3793 21.442C22.4879 21.5275 22.4992 21.5788 22.4455 21.742ZM60.2317 28.7797C60.0715 28.9357 60.0112 28.9258 59.8728 28.7213C59.7219 28.4983 59.7265 28.4206 59.898 28.3223C60 28.2639 60.0814 28.2625 60.1959 28.3187C60.3833 28.4107 60.3992 28.6166 60.2317 28.7797ZM61.2964 26.9928C61.2328 27.0128 61.1335 27.0498 61.0752 27.0755C61.0137 27.1033 60.9051 27.0627 60.8104 26.9765L60.6508 26.8311L60.8071 26.6886C61.0011 26.5112 61.0229 26.5119 61.2381 26.6936C61.4414 26.866 61.4566 26.943 61.2964 26.9928ZM17.5499 34.7822C17.3632 34.9283 17.2559 34.9048 17.1685 34.6982C17.0698 34.4652 17.1678 34.2764 17.387 34.2764C17.6141 34.2764 17.7306 34.6398 17.5499 34.7822ZM52.6896 50.9424C52.626 51.0115 54.0734 50.9303 54.4157 50.8455C54.8116 50.7472 54.7977 50.6731 54.3938 50.7294C54.1932 50.7565 53.7397 50.8035 53.3848 50.8334C53.0299 50.8626 52.7174 50.9118 52.6896 50.9424ZM62.2942 23.0451C62.0903 23.1591 61.9797 23.1462 61.8512 22.9938C61.7625 22.8883 61.7572 22.847 61.8241 22.7893C61.9989 22.639 62.1743 22.634 62.3319 22.775L62.3339 22.7765C62.4173 22.8513 62.4597 22.889 62.4571 22.9218C62.4538 22.956 62.4008 22.9852 62.2942 23.0451ZM19.4581 24.6581C19.4098 24.7942 19.2429 24.797 19.1946 24.6617C19.1429 24.5177 19.2263 24.3966 19.3574 24.4244C19.4177 24.4372 19.5177 24.3831 19.5786 24.3033C19.6647 24.1921 19.7077 24.1786 19.7693 24.2434C19.8812 24.3617 19.7964 24.5512 19.6329 24.5512C19.5581 24.5512 19.4793 24.599 19.4581 24.6581ZM10.9883 42.8666C10.8334 43.0504 10.7698 43.0397 10.691 42.8174C10.6149 42.6016 10.7049 42.4341 10.897 42.4341C11.0718 42.4341 11.128 42.7006 10.9883 42.8666ZM8.49614 38.3082C8.52262 38.5533 8.37497 38.6887 8.21606 38.564C8.03729 38.4229 8.10152 38.1237 8.31075 38.1237C8.4392 38.1237 8.48091 38.1643 8.49614 38.3082ZM18.0968 21.2447C18.1074 21.3266 18.0776 21.4278 18.0299 21.4705C17.9008 21.5859 17.7128 21.4434 17.7128 21.2297C17.7128 21.0765 17.7386 21.0537 17.8948 21.073C18.0206 21.0886 18.0829 21.1421 18.0968 21.2447ZM53.4378 49.1726C53.2159 49.3094 52.4075 49.4042 52.4075 49.2938C52.4075 49.2546 52.6088 49.2004 52.8544 49.1734C53.1001 49.1463 53.3755 49.1085 53.4669 49.0886C53.6225 49.0551 53.6205 49.0601 53.4378 49.1726ZM10.0958 41.1909C9.99516 41.3213 9.9369 41.3213 9.83626 41.1909C9.72039 41.0406 9.77931 40.8346 9.94418 40.809C10.117 40.7826 10.217 41.0341 10.0958 41.1909ZM13.168 42.3273C13.1475 42.3864 13.0568 42.4341 12.9674 42.4341C12.8283 42.4341 12.8072 42.4049 12.825 42.2382C12.8396 42.1021 12.8893 42.0359 12.9866 42.0209C13.1389 41.9974 13.2302 42.152 13.168 42.3273ZM11.9179 48.9846C11.9815 49.199 11.818 49.3586 11.6617 49.2346C11.5074 49.1142 11.5505 48.8877 11.7319 48.8599C11.8292 48.8449 11.8888 48.8855 11.9179 48.9846ZM8.29419 40.3573C8.177 40.4834 8.05914 40.4549 8.01015 40.2882C7.9691 40.1485 8.05716 40.016 8.19223 40.0132C8.29353 40.0103 8.37166 40.2739 8.29419 40.3573ZM27.7107 45.435C27.7107 45.4814 27.7722 45.4977 27.8596 45.4742C27.9417 45.4521 28.1132 45.4065 28.2404 45.3731L28.4721 45.3111L28.2073 45.2626C27.8444 45.1964 27.7623 45.2006 27.81 45.284C27.8325 45.3232 27.8193 45.3553 27.7809 45.3553C27.7425 45.3553 27.7107 45.3909 27.7107 45.435ZM44.2715 50.7764C44.3853 50.8541 44.7826 50.7821 44.9567 50.6532C45.0673 50.5712 45.0706 50.5563 44.9766 50.5563C44.9157 50.5563 44.7118 50.5919 44.5231 50.6353C44.284 50.6902 44.2079 50.7337 44.2715 50.7764ZM19.1694 24.8668C19.1694 25.0393 18.9344 25.139 18.8344 25.0093C18.7655 24.9203 18.7695 24.8797 18.8556 24.787C18.9754 24.6581 19.1694 24.708 19.1694 24.8668ZM19.8573 22.9425C19.807 23.0835 19.6739 23.0871 19.5693 22.951C19.4621 22.8128 19.5375 22.6988 19.7362 22.6988C19.9024 22.6988 19.9269 22.748 19.8573 22.9425ZM41.6826 44.3842C41.6819 44.4176 41.7481 44.4233 41.8302 44.3956C41.9123 44.3678 42.0838 44.3222 42.211 44.2937L42.4427 44.2424L42.1189 44.1875C41.8038 44.1341 41.6852 44.1868 41.6826 44.3842ZM19.037 25.3613C19.037 25.4105 18.9946 25.5123 18.9423 25.5886C18.8503 25.7232 18.8456 25.7218 18.7834 25.5487C18.737 25.4197 18.743 25.3435 18.8052 25.273C18.8999 25.1668 19.037 25.2188 19.037 25.3613ZM59.0525 29.8719C59.1154 29.9909 59.0214 30.0308 58.8466 29.9596C58.6764 29.8904 58.6579 29.805 58.7883 29.6888C58.879 29.6076 58.932 29.6439 59.0525 29.8719ZM26.1878 23.3151C26.1878 23.4661 25.9369 23.427 25.8899 23.2695C25.8243 23.0472 25.9163 22.9553 26.062 23.0971C26.1309 23.1648 26.1878 23.2631 26.1878 23.3151ZM60.5515 27.7196C60.5515 27.7801 60.4946 27.8286 60.4231 27.8286C60.2655 27.8286 60.2112 27.7466 60.2847 27.6191C60.3535 27.4987 60.5515 27.5728 60.5515 27.7196ZM19.8977 27.3298C19.8977 27.4082 19.8547 27.4723 19.8024 27.4723C19.6852 27.4723 19.6104 27.3548 19.666 27.2586C19.7382 27.1332 19.8977 27.1824 19.8977 27.3298ZM31.0212 53.8963C31.0212 53.9861 30.81 54.0338 30.661 53.9775C30.5432 53.9334 30.5425 53.9262 30.6505 53.8813C30.8153 53.8137 31.0212 53.8222 31.0212 53.8963ZM50.8846 51.1262C50.8846 51.2167 51.1515 51.2167 51.2819 51.1262C51.3561 51.0749 51.3177 51.0571 51.1329 51.0564C50.9965 51.0557 50.8846 51.087 50.8846 51.1262ZM49.7816 51.2552C49.6081 51.3229 49.6193 51.3286 49.9246 51.3293C50.2013 51.33 50.2325 51.3179 50.1126 51.2559C50.014 51.2046 49.9113 51.2039 49.7816 51.2552ZM15.1967 59.3196C15.1967 59.398 15.1689 59.4621 15.1345 59.4621C15.0458 59.4621 14.9829 59.3324 15.0312 59.2484C15.1007 59.1279 15.1967 59.1693 15.1967 59.3196ZM26.8877 44.7219C26.938 44.8095 27.0976 44.8017 27.1505 44.709C27.2134 44.6007 27.1638 44.5708 26.9969 44.6178C26.9168 44.6406 26.8678 44.6877 26.8877 44.7219ZM12.7469 45.8184C12.7469 45.9295 12.6688 45.9594 12.5926 45.8775C12.5165 45.7956 12.5443 45.7115 12.6476 45.7115C12.7019 45.7115 12.7469 45.7592 12.7469 45.8184ZM18.9708 23.5837C18.9708 23.6457 18.9238 23.6963 18.8662 23.6963C18.8086 23.6963 18.7728 23.6585 18.7874 23.6115C18.8284 23.4797 18.9708 23.4576 18.9708 23.5837ZM11.8199 45.3553C11.8199 45.3944 11.7749 45.4265 11.7206 45.4265C11.6663 45.4265 11.6213 45.3944 11.6213 45.3553C11.6213 45.3161 11.6663 45.284 11.7206 45.284C11.7749 45.284 11.8199 45.3161 11.8199 45.3553ZM10.8268 46.8828C10.8268 46.9441 10.797 46.9939 10.7606 46.9939C10.7242 46.9939 10.6944 46.964 10.6944 46.927C10.6944 46.8899 10.7242 46.84 10.7606 46.8158C10.797 46.7916 10.8268 46.8215 10.8268 46.8828ZM46.7133 31.8896C46.6743 31.968 46.6273 32.0321 46.6094 32.0321C46.5908 32.0321 46.6081 31.968 46.6471 31.8896C46.6862 31.8113 46.7332 31.7471 46.7511 31.7471C46.7696 31.7471 46.7524 31.8113 46.7133 31.8896ZM17.5188 26.3132C17.5221 26.3409 17.4883 26.3773 17.4446 26.3929C17.4009 26.4086 17.3771 26.383 17.3916 26.336C17.4201 26.244 17.5108 26.2277 17.5188 26.3132ZM38.2462 47.6872C38.2919 47.7356 38.3118 47.7933 38.2919 47.8154C38.2714 47.8368 38.2343 47.7976 38.2091 47.7271C38.1734 47.6259 38.1813 47.6173 38.2462 47.6872Z" fill="black"/>
<path d="M46.6171 33.8084C46.2914 33.4906 45.8696 33.1508 45.6796 33.0524C45.4902 32.9548 45.2962 32.8237 45.2492 32.761C45.177 32.6656 45.1797 32.657 45.2631 32.7076C45.3181 32.7411 45.275 32.667 45.1678 32.543C45.0612 32.4198 44.9592 32.3186 44.9413 32.3186C44.9235 32.3186 44.9791 32.3984 45.0645 32.4967C45.1499 32.595 45.187 32.6748 45.1472 32.6748C45.0334 32.6748 44.8076 32.3279 44.7228 32.0236C44.5619 31.4451 45.0466 30.6087 45.5432 30.6087C45.7683 30.6087 46.1742 30.8623 46.3801 31.1309C46.498 31.2848 46.5873 31.2827 46.5873 31.1252C46.5887 30.7298 47.174 30.2524 47.6586 30.2524C48.0261 30.2524 48.4525 30.7098 48.4353 31.086C48.432 31.1566 48.4002 31.1067 48.3651 30.9749C48.2731 30.6315 48.2598 30.7141 48.3095 31.3211C48.3393 31.6895 48.3274 31.9111 48.2704 32.0336C48.1023 32.397 47.5984 33.1693 47.558 33.1258C47.5348 33.1009 47.4713 33.1964 47.4157 33.3381C47.3004 33.6367 47.2925 33.6965 47.3759 33.6409C47.409 33.6188 47.4196 33.668 47.3998 33.7492C47.372 33.8625 47.3501 33.8753 47.3064 33.8027C47.272 33.745 47.2653 33.7963 47.2898 33.9323C47.3117 34.0556 47.3024 34.2088 47.27 34.2715C47.2203 34.3669 47.1104 34.2893 46.6171 33.8084ZM47.7129 32.8886C47.752 32.8102 47.7692 32.7461 47.7507 32.7461C47.7328 32.7461 47.6858 32.8102 47.6467 32.8886C47.6077 32.9669 47.5904 33.0311 47.609 33.0311C47.6269 33.0311 47.6739 32.9669 47.7129 32.8886Z" fill="#D80A0A"/>
<path d="M24.7459 51.0602L24.6069 51.078V50.8186C24.6069 50.6761 24.6387 50.5593 24.6777 50.5593C24.7181 50.5593 24.7301 50.4987 24.7062 50.4168C24.6824 50.3356 24.6943 50.2743 24.734 50.2743C24.7724 50.2743 24.7996 50.218 24.7943 50.1496C24.789 50.0812 24.7896 49.9451 24.7963 49.8468C24.8055 49.7001 24.8201 49.6872 24.879 49.7756C24.9373 49.8625 24.9426 49.8568 24.9082 49.7442C24.885 49.668 24.9108 49.2989 24.9664 48.9249C25.0214 48.5501 25.1128 47.9082 25.1704 47.4978C25.228 47.0874 25.3074 46.7305 25.3471 46.7041C25.3915 46.6742 25.4021 46.5588 25.3743 46.3992C25.3458 46.2368 25.3551 46.142 25.3981 46.142C25.4412 46.142 25.4663 45.9824 25.467 45.8107C25.4676 45.8306 25.4676 45.8506 25.4676 45.8713C25.4676 46.2902 25.269 47.6702 25.2055 47.6952C25.175 47.7066 25.1651 47.7764 25.1829 47.8498C25.2213 48.0087 24.932 50.1261 24.8227 50.488C24.8049 50.5472 24.7797 50.7032 24.7671 50.835L24.7459 51.0602ZM39.0344 45.6404C38.9615 45.9389 38.9562 46.1883 38.9503 46.8687C38.947 47.3211 38.9529 47.6161 38.9708 47.7942C38.9695 47.7857 38.9675 47.7771 38.9655 47.7686C38.9052 47.4679 38.8788 47.418 38.8377 47.5313C38.7391 47.7999 38.7708 47.1573 38.8814 46.6336C38.939 46.36 38.9701 46.09 38.9503 46.0344C38.9317 45.9817 38.9695 45.81 39.0344 45.6404ZM38.9966 47.9467C39.0046 47.9745 39.0138 47.9937 39.0244 48.0051C39.0701 48.0543 39.1072 48.144 39.1072 48.2053C39.1072 48.387 39.3687 48.8622 39.6501 49.1921C39.8673 49.4471 39.8978 49.517 39.8289 49.606C39.8978 49.517 39.8646 49.4443 39.6342 49.175C39.4813 48.9969 39.3303 48.8686 39.2979 48.8907C39.229 48.9363 38.9575 48.2958 39.0079 48.2074C39.0211 48.1846 39.0158 48.0799 38.9966 47.9467ZM44.9861 45.478C44.8113 45.6069 44.5458 45.7195 44.3299 45.7366C44.2319 45.7437 44.1644 45.7715 44.179 45.7972C44.1942 45.8235 44.079 45.8648 43.9241 45.8898C43.7691 45.9154 43.3983 46.0024 43.0991 46.0843L42.7124 46.1904C42.7601 46.1741 42.8216 46.1577 42.9011 46.1377C43.0905 46.0886 43.4798 45.9582 43.7665 45.847C44.0532 45.7359 44.3525 45.6625 44.4319 45.6839C44.5266 45.7095 44.6173 45.6725 44.6994 45.5749C44.7769 45.4837 44.8696 45.4431 44.9444 45.4687C44.9589 45.4737 44.9729 45.4766 44.9861 45.478ZM35.0464 46.9286C35.0431 47.0882 35.0411 47.2656 35.0405 47.4601C35.0398 48.1362 35.2411 48.7817 35.6172 49.3203C35.5596 49.2484 35.5066 49.1807 35.4702 49.1344C35.3543 48.984 35.3384 48.9783 35.3702 49.0987C35.3907 49.1771 35.357 49.1465 35.2947 49.0303C35.2325 48.9135 35.1729 48.7055 35.1617 48.5672C35.1511 48.4283 35.1074 48.1704 35.0656 47.9944C35.0166 47.7885 35.0061 47.4565 35.0359 47.0682C35.0398 47.0219 35.0431 46.9756 35.0464 46.9286ZM54.7258 51.1549C54.6629 51.1499 54.6232 51.1421 54.6046 51.1314C54.5344 51.0908 54.2961 51.058 54.0756 51.058C53.477 51.058 53.5896 50.9383 54.2213 50.9027C54.3987 50.8927 54.5371 50.8778 54.653 50.855C54.5735 50.8785 54.4954 50.8977 54.4225 50.9091C54.2113 50.9419 54.106 50.9732 54.1901 50.9782C54.2736 50.9832 54.4305 51.0359 54.5384 51.0958C54.5881 51.1236 54.6397 51.1435 54.7258 51.1549ZM39.7362 54.2641C39.7898 54.3575 39.1085 54.3575 38.9748 54.2641C38.9046 54.2157 38.996 54.195 39.2853 54.1943C39.5111 54.1936 39.7137 54.2249 39.7362 54.2641ZM53.6909 51.9429C53.7187 51.9123 54.0312 51.8631 54.3861 51.8339C54.5682 51.8182 54.7768 51.799 54.9641 51.779C54.647 51.836 54.3735 51.9066 54.4682 51.9272C54.4974 51.9336 54.5285 51.9386 54.5603 51.9422C54.1027 51.9728 53.6551 51.9814 53.6909 51.9429ZM41.9371 45.4986C41.947 45.4431 41.953 45.3754 41.953 45.3106C41.9543 45.1132 41.9271 45.0783 41.7391 45.0348C41.5332 44.9871 41.3557 44.9215 41.2266 44.8496C41.3173 44.8759 41.4425 44.8923 41.6192 44.9059C41.8172 44.9215 41.9894 44.9451 42.0019 44.9586C42.0271 44.9857 41.9821 45.3134 41.9371 45.4986ZM27.2037 45.8798C27.2957 45.9354 27.4361 45.9653 27.6367 45.9781C27.8413 45.9917 28.0201 46.0152 28.034 46.0301C28.0439 46.0408 28.0426 46.1192 28.0327 46.2254C28.0227 46.1577 27.944 46.1292 27.7089 46.075C27.4719 46.0202 27.3077 45.9589 27.2037 45.8798ZM39.3568 44.6373C39.3144 44.7655 39.2588 44.9308 39.1986 45.1103C39.18 45.1659 39.1628 45.2172 39.1469 45.2657C39.1522 45.2222 39.1522 45.1887 39.1456 45.1695C39.0979 45.0355 39.1701 44.7064 39.237 44.7513C39.2641 44.7691 39.2754 44.6971 39.2621 44.5902C39.2416 44.4292 39.2476 44.4207 39.2952 44.5389C39.327 44.6173 39.3416 44.6515 39.3568 44.6373ZM51.886 52.1267C51.886 52.0875 51.9979 52.0562 52.1343 52.0569C52.319 52.0576 52.3574 52.0754 52.2832 52.1267C52.1528 52.2172 51.886 52.2172 51.886 52.1267ZM17.2826 30.4934C17.3051 30.5917 17.2945 30.6929 17.2574 30.7171C17.219 30.7427 17.1912 30.6708 17.1912 30.5433C17.1912 30.4421 17.1561 30.3673 17.1118 30.3345C17.1177 30.3352 17.123 30.3366 17.1283 30.3381C17.1707 30.3537 17.2641 30.2675 17.3495 30.1578C17.2773 30.2789 17.2568 30.3837 17.2826 30.4934ZM31.3247 22.8643C31.3254 22.8643 31.326 22.8636 31.3274 22.8629C31.422 22.8059 31.3558 22.7638 30.9764 22.6399C30.8705 22.605 30.7646 22.5622 30.6633 22.513C30.8738 22.6085 31.1009 22.6755 31.3168 22.6997L31.7246 22.7453L31.4267 22.8386C31.3956 22.8479 31.3618 22.8565 31.3247 22.8643ZM43.7089 53.7654C43.7334 53.8081 43.6493 53.8359 43.4977 53.8352C43.3103 53.8345 43.2712 53.8167 43.3447 53.7654C43.4745 53.6756 43.6572 53.6756 43.7089 53.7654ZM41.4577 54.0504C41.4352 54.0896 41.3438 54.1216 41.2551 54.1216C41.1664 54.1216 41.0935 54.0896 41.0935 54.0504C41.0935 54.0112 41.1849 53.9791 41.2961 53.9791C41.414 53.9791 41.4815 54.0091 41.4577 54.0504ZM50.7829 52.2557C50.9127 52.2044 51.0153 52.2051 51.114 52.2564C51.2338 52.3184 51.2027 52.3305 50.9259 52.3298C50.6207 52.3291 50.6094 52.3234 50.7829 52.2557ZM46.7996 52.7986C47.0625 52.7601 47.2876 52.7223 47.4598 52.6867C47.9755 52.5798 48.0636 52.6433 47.667 52.7865C47.673 52.7808 47.6776 52.7743 47.6816 52.7679C47.7319 52.6803 47.6206 52.681 46.9863 52.7729C46.9354 52.78 46.8725 52.7886 46.7996 52.7986ZM30.4666 55.0478C30.4441 55.087 30.368 55.1191 30.2971 55.1191C30.2263 55.1191 30.1687 55.087 30.1687 55.0478C30.1687 55.0086 30.2448 54.9766 30.3382 54.9766C30.4342 54.9766 30.4898 55.0072 30.4666 55.0478ZM35.6092 44.6964C35.5305 44.8083 35.4556 44.9964 35.3662 45.3013C35.3312 45.4188 35.2961 45.5336 35.263 45.6333C35.2769 45.5635 35.2848 45.4908 35.2848 45.4274C35.2848 45.2721 35.3106 45.1445 35.3411 45.1445C35.3722 45.1445 35.4404 45.0341 35.4927 44.9002C35.5238 44.8204 35.5576 44.7555 35.6092 44.6964ZM50.6942 33.1965C50.6942 33.4109 50.6445 33.4473 50.5843 33.277C50.5624 33.2157 50.5776 33.1295 50.6194 33.0846C50.675 33.0248 50.6942 33.0533 50.6942 33.1965ZM41.8881 53.9791C41.8881 54.0183 41.8285 54.0504 41.7556 54.0504C41.6828 54.0504 41.6232 54.0183 41.6232 53.9791C41.6232 53.9399 41.6828 53.9079 41.7556 53.9079C41.8285 53.9079 41.8881 53.9399 41.8881 53.9791ZM44.1724 53.6941C44.1498 53.7333 44.0883 53.7654 44.036 53.7654C43.9837 53.7654 43.9406 53.7333 43.9406 53.6941C43.9406 53.655 44.0022 53.6229 44.077 53.6229C44.1518 53.6229 44.1949 53.655 44.1724 53.6941ZM42.2522 53.9079C42.2747 53.9471 42.2469 53.9791 42.19 53.9791C42.133 53.9791 42.0867 53.9471 42.0867 53.9079C42.0867 53.8687 42.1145 53.8366 42.1489 53.8366C42.1834 53.8366 42.2297 53.8687 42.2522 53.9079ZM14.609 49.3481C14.609 49.3873 14.5792 49.4193 14.5428 49.4193C14.5064 49.4193 14.4766 49.3873 14.4766 49.3481C14.4766 49.3089 14.5064 49.2769 14.5428 49.2769C14.5792 49.2769 14.609 49.3089 14.609 49.3481ZM28.0241 46.3073C28.0214 46.3322 28.0181 46.3579 28.0141 46.3835L27.9691 46.7098L27.4341 46.982C27.8009 46.7953 27.9837 46.6621 27.9843 46.5823C27.985 46.5168 28.0029 46.3935 28.0234 46.3094L28.0241 46.3073ZM39.2476 48.6876C39.1827 48.6178 39.1747 48.6264 39.2105 48.7275C39.2356 48.7981 39.2727 48.8373 39.2932 48.8159C39.3131 48.7938 39.2932 48.7361 39.2476 48.6876ZM15.7756 29.6833L15.8637 29.31C15.8054 29.5593 15.7882 29.6641 15.8829 29.8507L15.7756 29.6833ZM38.2795 43.6056C38.3928 43.5693 38.5047 43.5329 38.604 43.5002C38.3888 43.575 38.0644 43.6854 37.8823 43.7453C37.7763 43.7802 37.6598 43.8201 37.538 43.8628C37.6287 43.8236 37.9584 43.7096 38.2795 43.6056ZM36.5534 44.2304C36.2323 44.3566 35.9549 44.4727 35.8046 44.5446C35.9569 44.4577 36.1866 44.3644 36.5534 44.2304ZM30.0349 21.7642C30.113 21.7842 30.2011 21.8041 30.268 21.8163C30.3103 21.8248 30.3441 21.8312 30.3673 21.8341C30.3435 21.8561 30.2269 21.8362 30.0429 21.7671C30.0402 21.7664 30.0376 21.7657 30.0349 21.7642ZM29.9707 22.0143C29.978 22.0243 29.9859 22.0336 29.9939 22.0428C29.9343 21.9794 29.8839 21.9153 29.8449 21.8519C29.7509 21.698 29.7436 21.6816 29.8641 21.7172C29.7568 21.7072 29.7946 21.7992 29.9707 22.0143ZM44.3458 53.1548C44.2657 53.1862 44.1545 53.2118 44.0247 53.2303C44.1545 53.2118 44.2657 53.1854 44.3458 53.1548C44.4955 53.0964 44.8828 53.023 45.2311 52.9845C44.8345 53.038 44.471 53.1071 44.3458 53.1548ZM44.9854 44.9679C45.0953 44.9842 45.1649 45.0006 45.1735 45.0156C45.1801 45.0277 45.1847 45.0484 45.1867 45.0747C45.1629 45.0249 45.1013 44.9921 44.9854 44.9679ZM55.0886 50.6776C55.2244 50.5921 55.329 50.5044 55.329 50.4752C55.329 50.5265 55.2303 50.6027 55.0886 50.6776ZM30.3375 21.7778C30.309 21.76 30.2713 21.7379 30.2243 21.7094C30.0733 21.6196 29.9369 21.4942 29.8343 21.3574C29.9369 21.4935 30.074 21.6175 30.2243 21.703C30.2759 21.7322 30.3137 21.7571 30.3375 21.7778ZM47.4922 52.8456C47.3578 52.8912 47.2247 52.9432 47.1227 52.9888C47.2605 52.9204 47.4121 52.8627 47.4922 52.8456ZM47.04 53.2424C47.1141 53.251 47.1823 53.2268 47.2399 53.1705C47.3028 53.1099 47.5405 53.0365 47.8014 52.9845C47.5392 53.0372 47.3002 53.1121 47.2353 53.1748C47.1651 53.2432 47.1135 53.2638 47.04 53.2424ZM16.9568 30.4143C16.9423 30.4542 16.8668 30.4827 16.7536 30.4948C16.8449 30.4777 16.9224 30.4478 16.9568 30.4143ZM26.0073 50.798C26.3138 50.7167 26.4979 50.6612 26.6105 50.607C26.4966 50.6619 26.3105 50.7189 25.9993 50.8015C25.8404 50.8443 25.6683 50.8863 25.5074 50.9234C25.6663 50.8849 25.8417 50.8414 26.0073 50.798ZM35.1047 46.0601C35.0935 46.1171 35.0835 46.1947 35.0749 46.2938C35.0749 46.2831 35.0749 46.2738 35.0743 46.266C35.0723 46.2083 35.0842 46.1327 35.1047 46.0601ZM39.7296 44.2176C39.8865 44.1435 40.1182 44.0573 40.4645 43.9369C40.1705 44.0395 39.913 44.1378 39.7296 44.2176ZM38.7616 43.7125C38.5722 43.8564 38.2253 44.053 37.6227 44.3623C38.208 44.0616 38.5682 43.8571 38.7616 43.7125ZM46.9718 53.0665C46.9658 53.07 46.9605 53.0743 46.9559 53.0779C46.9188 53.1064 46.8936 53.127 46.8791 53.1434C46.8804 53.1235 46.9089 53.1007 46.9718 53.0665ZM41.8973 45.6155C41.8742 45.6504 41.6179 45.8071 41.3286 45.9639C41.6067 45.8136 41.8563 45.6597 41.8993 45.6126C41.8987 45.6141 41.898 45.6148 41.8973 45.6155ZM25.1862 45.2422C25.271 45.2892 25.3306 45.3333 25.373 45.3889C25.326 45.3369 25.2564 45.2813 25.1862 45.2422ZM30.3739 22.9683C30.4169 23.0203 30.5427 23.098 30.7513 23.2034C30.5401 23.0966 30.4143 23.0196 30.3739 22.9683ZM17.521 29.8422C17.5216 29.8358 17.5223 29.8294 17.5223 29.8237C17.5223 29.7859 17.5501 29.7553 17.5832 29.7553C17.5501 29.7553 17.5223 29.7888 17.5223 29.8294C17.5223 29.8329 17.5216 29.8372 17.521 29.8422ZM38.9979 43.3698C38.9827 43.3741 38.9615 43.3805 38.9357 43.3883C38.9523 43.3826 38.9642 43.3783 38.9715 43.3755C38.9827 43.3712 38.9913 43.3691 38.9979 43.3698ZM30.7129 22.8956C30.699 22.8949 30.6858 22.8935 30.6732 22.8928C30.6983 22.8942 30.7262 22.8964 30.7546 22.8985C30.7718 22.8999 30.7884 22.9006 30.8056 22.902C30.7745 22.9006 30.7434 22.8985 30.7129 22.8956ZM45.1702 45.2585L45.1695 45.2593C45.1662 45.2742 45.1602 45.2899 45.1516 45.3056C45.1582 45.2892 45.1642 45.2735 45.1702 45.2585ZM35.161 45.9154C35.1537 45.9318 35.1484 45.9439 35.1431 45.9525C35.1491 45.9397 35.155 45.9275 35.161 45.9154ZM38.9231 43.555C38.9423 43.5258 38.9595 43.4987 38.9741 43.4738C38.9609 43.4959 38.945 43.5223 38.9251 43.5515C38.9244 43.5529 38.9238 43.5543 38.9231 43.555Z" fill="#A0A09F"/>
</svg>
